<?xml version="1.0" encoding="utf-8" standalone="no"?>
<!DOCTYPE svg PUBLIC "-//W3C//DTD SVG 1.1//EN"
  "http://www.w3.org/Graphics/SVG/1.1/DTD/svg11.dtd">
<!-- Created with matplotlib (https://matplotlib.org/) -->
<svg height="648pt" version="1.1" viewBox="0 0 864 648" width="864pt" xmlns="http://www.w3.org/2000/svg" xmlns:xlink="http://www.w3.org/1999/xlink">
 <metadata>
  <rdf:RDF xmlns:cc="http://creativecommons.org/ns#" xmlns:dc="http://purl.org/dc/elements/1.1/" xmlns:rdf="http://www.w3.org/1999/02/22-rdf-syntax-ns#">
   <cc:Work>
    <dc:type rdf:resource="http://purl.org/dc/dcmitype/StillImage"/>
    <dc:date>2020-10-06T16:48:09.262494</dc:date>
    <dc:format>image/svg+xml</dc:format>
    <dc:creator>
     <cc:Agent>
      <dc:title>Matplotlib v3.3.2, https://matplotlib.org/</dc:title>
     </cc:Agent>
    </dc:creator>
   </cc:Work>
  </rdf:RDF>
 </metadata>
 <defs>
  <style type="text/css">*{stroke-linecap:butt;stroke-linejoin:round;}</style>
 </defs>
 <g id="figure_1">
  <g id="patch_1">
   <path d="M 0 648 
L 864 648 
L 864 0 
L 0 0 
z
" style="fill:#ffffff;"/>
  </g>
  <g id="axes_1">
   <g id="patch_2">
    <path d="M 108 385.839721 
L 777.6 385.839721 
L 777.6 268.640279 
L 108 268.640279 
z
" style="fill:#ffffff;"/>
   </g>
   <g id="PatchCollection_1">
    <path clip-path="url(#p6c99d4c93d)" d="M 747.158368 297.5002 
L 747.163636 297.558972 
L 747.163116 297.617977 
L 747.156813 297.676646 
L 747.144786 297.734415 
L 747.127153 297.790725 
L 747.104082 297.845036 
L 747.075797 297.896821 
L 747.042569 297.945584 
L 747.00472 297.990853 
L 746.962615 298.032193 
L 746.916658 298.069204 
L 746.867293 298.10153 
L 746.814997 298.128859 
L 746.760272 298.150928 
L 746.703647 298.167525 
L 746.645667 298.178488 
L 705.759553 303.847545 
L 705.700824 303.852769 
L 705.641866 303.852212 
L 705.583247 303.845881 
L 705.525529 303.833837 
L 705.46927 303.816195 
L 705.41501 303.793125 
L 705.363272 303.76485 
L 705.314553 303.731641 
L 705.269323 303.693818 
L 705.228016 303.651745 
L 705.191031 303.605827 
L 705.158723 303.556506 
L 705.131404 303.504257 
L 705.109335 303.449582 
L 705.09273 303.393008 
L 705.081749 303.335079 
L 703.935607 295.099 
L 703.930354 295.040238 
L 703.930886 294.981245 
L 703.9372 294.922589 
L 703.949235 294.864834 
L 703.966874 294.808537 
L 703.989948 294.754241 
L 704.018234 294.702468 
L 704.05146 294.653719 
L 704.089305 294.608462 
L 704.131405 294.567133 
L 704.177354 294.530131 
L 704.22671 294.497813 
L 704.278997 294.470489 
L 704.33371 294.448423 
L 704.390324 294.431828 
L 704.448291 294.420864 
L 745.332018 288.74956 
L 745.390739 288.744333 
L 745.44969 288.744885 
L 745.508303 288.75121 
L 745.566015 288.763247 
L 745.62227 288.780881 
L 745.676526 288.803941 
L 745.728262 288.832206 
L 745.77698 288.865403 
L 745.822211 288.903215 
L 745.86352 288.945275 
L 745.900509 288.991181 
L 745.932823 289.04049 
L 745.96015 289.092727 
L 745.982228 289.147391 
L 745.998844 289.203954 
L 746.009838 289.261874 
L 747.158368 297.5002 
" style="fill:#1f77b4;"/>
    <path clip-path="url(#p6c99d4c93d)" d="M 138.708794 305.329256 
L 138.711653 305.314073 
L 138.716006 305.288526 
L 138.719895 305.263051 
L 138.723342 305.237414 
L 138.726348 305.21176 
L 138.728885 305.186145 
L 138.731003 305.160205 
L 138.732662 305.134465 
L 138.733855 305.108776 
L 138.734607 305.082903 
L 138.734909 305.057022 
L 138.734761 305.03112 
L 138.734198 305.00671 
L 138.73262 304.971935 
L 138.452508 301.976211 
L 138.440262 301.845195 
L 138.439841 301.84049 
L 138.439398 301.835304 
L 138.438457 301.822769 
L 138.438122 301.817574 
L 138.437662 301.809631 
L 138.437396 301.804435 
L 138.436923 301.793099 
L 138.436755 301.787913 
L 138.43651 301.777553 
L 138.436431 301.772318 
L 138.436364 301.762122 
L 138.436373 301.756937 
L 138.436503 301.745538 
L 138.436612 301.740342 
L 138.436915 301.730049 
L 138.437112 301.724864 
L 138.437649 301.713542 
L 138.437945 301.708346 
L 138.438449 301.700412 
L 138.438814 301.695217 
L 138.439844 301.682485 
L 138.440317 301.677319 
L 138.441309 301.667395 
L 138.441871 301.662209 
L 138.442979 301.652694 
L 138.44362 301.647548 
L 138.4451 301.636499 
L 138.445839 301.631343 
L 138.447595 301.619884 
L 138.448433 301.614748 
L 138.449782 301.606816 
L 138.450689 301.601689 
L 138.452864 301.590064 
L 138.453869 301.584967 
L 138.455944 301.574904 
L 138.457038 301.569817 
L 138.459588 301.558495 
L 138.460781 301.553427 
L 138.463071 301.544039 
L 138.464343 301.539001 
L 138.467002 301.528841 
L 138.468363 301.523822 
L 138.471283 301.513422 
L 138.472732 301.508433 
L 138.475423 301.499435 
L 138.476951 301.494466 
L 138.480112 301.484496 
L 138.481729 301.479547 
L 138.485649 301.467947 
L 138.487365 301.463037 
L 138.490147 301.455246 
L 138.491931 301.450356 
L 138.4964 301.438498 
L 138.498283 301.433658 
L 138.501889 301.424607 
L 138.503851 301.419795 
L 138.507424 301.411223 
L 138.509464 301.406432 
L 138.514142 301.395739 
L 138.516271 301.390996 
L 138.520319 301.382173 
L 138.522528 301.37746 
L 138.527598 301.366908 
L 138.529895 301.362245 
L 138.534014 301.354041 
L 138.536381 301.349417 
L 138.541832 301.339015 
L 138.544287 301.334441 
L 138.549128 301.325598 
L 138.551671 301.321043 
L 138.556482 301.31259 
L 138.559094 301.308084 
L 138.56436 301.29918 
L 138.567042 301.294733 
L 138.573198 301.284747 
L 138.575968 301.28035 
L 138.58144 301.271826 
L 138.584289 301.267468 
L 138.589354 301.259848 
L 138.592272 301.25553 
L 138.59948 301.245102 
L 138.602477 301.240862 
L 138.607812 301.233436 
L 138.610878 301.229236 
L 138.617684 301.220097 
L 138.620829 301.215956 
L 138.62725 301.207652 
L 138.630464 301.203571 
L 138.636584 301.195927 
L 138.639867 301.191895 
L 138.645627 301.184927 
L 138.648979 301.180934 
L 138.657264 301.171275 
L 138.660684 301.167371 
L 138.667172 301.160087 
L 138.670662 301.156232 
L 138.677241 301.149082 
L 138.6808 301.145276 
L 138.688582 301.13711 
L 138.69222 301.133363 
L 138.698987 301.126505 
L 138.702654 301.122848 
L 138.712484 301.113265 
L 138.71624 301.109686 
L 138.722032 301.104241 
L 138.725857 301.100691 
L 138.73246 301.094655 
L 138.736324 301.091175 
L 138.746622 301.082112 
L 138.750565 301.078721 
L 138.756793 301.073438 
L 138.760776 301.070105 
L 138.769456 301.06298 
L 138.773508 301.059716 
L 138.781892 301.053086 
L 138.785993 301.049901 
L 138.794158 301.043672 
L 138.798328 301.040547 
L 138.806949 301.034205 
L 138.811169 301.031158 
L 138.818621 301.025864 
L 138.82288 301.022886 
L 138.833322 301.015749 
L 138.83763 301.01287 
L 138.844991 301.008028 
L 138.849378 301.005189 
L 138.859855 300.99856 
L 138.864272 300.995829 
L 138.871794 300.991254 
L 138.87626 300.988582 
L 138.886377 300.982662 
L 138.890892 300.980079 
L 138.898897 300.975581 
L 138.903452 300.973066 
L 138.912409 300.968221 
L 138.917003 300.965785 
L 138.927415 300.960396 
L 138.932058 300.958049 
L 138.940741 300.953749 
L 138.945414 300.951482 
L 138.956433 300.946272 
L 138.961165 300.944093 
L 138.96959 300.940292 
L 138.974341 300.938192 
L 138.983687 300.934156 
L 138.988479 300.932135 
L 138.996892 300.92866 
L 139.001723 300.926708 
L 139.014361 300.921766 
L 139.019212 300.919932 
L 139.027725 300.916787 
L 139.032614 300.915022 
L 139.043165 300.911325 
L 139.048095 300.909649 
L 139.055952 300.907037 
L 139.060901 300.90543 
L 139.073289 300.901555 
L 139.078267 300.900056 
L 139.088339 300.89712 
L 139.093337 300.895711 
L 139.103535 300.892931 
L 139.108592 300.8916 
L 139.116317 300.889621 
L 139.121345 300.888369 
L 139.133179 300.885549 
L 139.138247 300.884395 
L 139.148516 300.882152 
L 139.153603 300.881087 
L 139.161922 300.879407 
L 139.167038 300.878411 
L 139.180264 300.87599 
L 139.18538 300.875113 
L 139.194804 300.873574 
L 139.19995 300.872775 
L 139.212378 300.870979 
L 139.217534 300.870289 
L 139.223278 300.869548 
L 139.228444 300.868907 
L 139.241949 300.867387 
L 139.247115 300.866864 
L 139.256269 300.866009 
L 139.261445 300.865565 
L 139.271812 300.864766 
L 139.277007 300.864412 
L 139.290231 300.863654 
L 139.296846 300.863349 
L 139.302862 300.863101 
L 165.331853 299.921465 
L 166.577228 299.876397 
L 202.37887 298.581212 
L 203.992009 298.522841 
L 267.384914 296.229143 
L 269.183687 296.164039 
L 306.247503 294.822887 
L 306.644242 294.808534 
L 323.709698 294.191024 
L 324.867122 294.14913 
L 369.803788 292.523097 
L 369.806375 292.522981 
L 372.003902 292.443505 
L 477.642547 288.62098 
L 479.974766 288.536601 
L 510.59556 287.428573 
L 511.956737 287.379331 
L 528.941022 286.764755 
L 531.049526 286.685738 
L 531.051522 286.685667 
L 535.476388 286.534568 
L 538.245764 286.283439 
L 538.262114 286.28181 
L 538.296389 286.277567 
L 594.423688 278.440617 
L 594.425574 278.440357 
L 595.981349 278.22815 
L 626.439798 273.977576 
L 626.444959 273.976879 
L 626.452728 273.975863 
L 626.463837 273.974516 
L 626.471596 273.973649 
L 626.480902 273.972681 
L 626.4887 273.971932 
L 626.499217 273.971014 
L 626.507015 273.970403 
L 626.518376 273.96962 
L 626.526184 273.969157 
L 626.536042 273.968653 
L 626.54386 273.968317 
L 626.554452 273.967957 
L 626.56227 273.967759 
L 626.572876 273.967585 
L 626.580694 273.967526 
L 626.591296 273.967539 
L 626.599124 273.967618 
L 626.608959 273.967797 
L 626.616787 273.968004 
L 626.626641 273.968345 
L 626.63446 273.96868 
L 626.646629 273.969326 
L 626.654428 273.969818 
L 626.664982 273.970579 
L 626.672781 273.97121 
L 626.681792 273.972007 
L 626.689591 273.972756 
L 626.701057 273.973969 
L 626.708826 273.974866 
L 626.719558 273.976203 
L 626.727298 273.977238 
L 626.736106 273.978482 
L 626.743855 273.979636 
L 626.755276 273.981448 
L 626.762996 273.982749 
L 626.773525 273.984621 
L 626.781225 273.98606 
L 626.790696 273.987909 
L 626.798347 273.989466 
L 626.809374 273.99182 
L 626.817015 273.993525 
L 626.827914 273.996064 
L 626.835505 273.997908 
L 626.843527 273.999914 
L 626.851108 274.001866 
L 626.862653 274.004961 
L 626.870186 274.007061 
L 626.879883 274.009852 
L 626.887385 274.01208 
L 626.897231 274.015096 
L 626.904695 274.017452 
L 626.916304 274.021247 
L 626.923708 274.023752 
L 626.931615 274.026487 
L 626.939 274.0291 
L 626.949814 274.033043 
L 626.957139 274.035793 
L 626.966325 274.039328 
L 626.973601 274.042197 
L 626.984026 274.046421 
L 626.991253 274.049428 
L 627.000584 274.053403 
L 627.007752 274.056528 
L 627.016745 274.060537 
L 627.023863 274.063781 
L 627.034602 274.068803 
L 627.041651 274.072184 
L 627.050176 274.076357 
L 627.057186 274.079856 
L 627.066249 274.084477 
L 627.07318 274.088086 
L 627.083328 274.093493 
L 627.0902 274.097239 
L 627.09939 274.102354 
L 627.106193 274.106219 
L 627.114171 274.110833 
L 627.120905 274.114796 
L 627.131036 274.120893 
L 627.1377 274.124995 
L 627.14714 274.130925 
L 627.153735 274.135154 
L 627.160232 274.13938 
L 627.166749 274.143678 
L 627.177021 274.150606 
L 627.183468 274.155052 
L 627.191388 274.160608 
L 627.197757 274.165153 
L 627.207304 274.172108 
L 627.213574 274.176771 
L 627.221537 274.182797 
L 627.227749 274.187578 
L 627.234717 274.193024 
L 627.240829 274.197875 
L 627.250282 274.205533 
L 627.256325 274.210531 
L 627.2636 274.216645 
L 627.269545 274.221723 
L 627.278044 274.229119 
L 627.28389 274.234305 
L 627.291497 274.241169 
L 627.297265 274.246464 
L 627.305083 274.253769 
L 627.310752 274.259162 
L 627.318824 274.266987 
L 627.324385 274.272478 
L 627.330811 274.278921 
L 627.336302 274.284511 
L 627.344124 274.292623 
L 627.349497 274.298302 
L 627.356442 274.305768 
L 627.361717 274.311535 
L 627.368117 274.318646 
L 627.373313 274.324512 
L 627.381113 274.333496 
L 627.38618 274.339451 
L 627.392715 274.347263 
L 627.397684 274.353306 
L 627.403783 274.360848 
L 627.408654 274.36697 
L 627.415642 274.375927 
L 627.420394 274.382138 
L 627.426491 274.390248 
L 627.431145 274.396548 
L 627.437393 274.405166 
L 627.441919 274.411525 
L 627.448557 274.421046 
L 627.452974 274.427514 
L 627.457891 274.434829 
L 627.46221 274.441356 
L 627.467933 274.450172 
L 627.472133 274.456768 
L 627.47812 274.466369 
L 627.482202 274.473053 
L 627.487407 274.481741 
L 627.49137 274.488484 
L 627.496623 274.497603 
L 627.500468 274.504415 
L 627.505385 274.513303 
L 627.509112 274.520174 
L 627.514058 274.529487 
L 627.517676 274.536448 
L 627.522427 274.545785 
L 627.525907 274.552775 
L 627.53094 274.563132 
L 627.534293 274.570201 
L 627.538281 274.578785 
L 627.541524 274.585913 
L 627.545958 274.595896 
L 627.549064 274.603063 
L 627.553131 274.612679 
L 627.556119 274.619915 
L 627.559954 274.629437 
L 627.562813 274.636712 
L 627.566525 274.646403 
L 627.569266 274.653748 
L 627.572844 274.663599 
L 627.575447 274.670963 
L 627.578953 274.681173 
L 627.581427 274.688597 
L 627.584817 274.699085 
L 627.587154 274.706548 
L 627.589942 274.715711 
L 627.592161 274.723214 
L 627.594942 274.732918 
L 627.597032 274.740451 
L 627.600114 274.752002 
L 627.602056 274.759584 
L 627.604309 274.768673 
L 627.606133 274.776284 
L 627.608564 274.786848 
L 627.61025 274.794489 
L 627.612431 274.804802 
L 627.613979 274.812453 
L 627.615977 274.822792 
L 627.617397 274.830502 
L 627.619198 274.840784 
L 627.62048 274.848494 
L 627.622022 274.858267 
L 627.623185 274.866056 
L 627.62402 274.871834 
L 631.756434 304.50449 
L 702.396949 294.705423 
L 702.455679 294.700196 
L 702.514639 294.70075 
L 702.573262 294.707078 
L 702.630982 294.71912 
L 702.687244 294.73676 
L 702.741507 294.759828 
L 702.793248 294.788103 
L 702.84197 294.821312 
L 702.887203 294.859135 
L 702.928512 294.901208 
L 702.9655 294.947127 
L 702.99781 294.996449 
L 703.025131 295.0487 
L 703.047201 295.103377 
L 703.063807 295.159953 
L 703.074789 295.217884 
L 704.220921 303.453835 
L 704.226175 303.512599 
L 704.225642 303.571594 
L 704.219327 303.630253 
L 704.207291 303.68801 
L 704.18965 303.744309 
L 704.166574 303.798607 
L 704.138286 303.850381 
L 704.105058 303.899131 
L 704.067209 303.944389 
L 704.025106 303.985718 
L 703.979153 304.022719 
L 703.929794 304.055037 
L 703.877504 304.082359 
L 703.822787 304.104423 
L 703.766171 304.121015 
L 703.7082 304.131977 
L 633.072714 313.925928 
L 635.788852 333.419399 
L 635.790654 333.42063 
L 635.840378 333.45855 
L 635.885892 333.501431 
L 635.926705 333.54881 
L 635.962373 333.600172 
L 635.992512 333.654963 
L 636.016794 333.712589 
L 636.034957 333.772426 
L 636.046804 333.833827 
L 636.296391 335.623601 
L 636.301636 335.681745 
L 636.301215 335.740124 
L 636.295133 335.798186 
L 636.283445 335.855384 
L 636.266263 335.911178 
L 636.243749 335.965042 
L 636.166677 336.126859 
L 637.529918 345.904895 
L 639.746169 361.79718 
L 639.905081 362.936657 
L 639.910374 362.99596 
L 639.909773 363.055496 
L 639.903284 363.11468 
L 639.890971 363.172931 
L 639.872955 363.229678 
L 639.849413 363.284365 
L 639.820575 363.336453 
L 639.786724 363.385433 
L 639.748194 363.430823 
L 639.705362 363.472178 
L 639.658648 363.509092 
L 639.60851 363.541202 
L 639.555442 363.568195 
L 639.499963 363.589804 
L 639.442619 363.605817 
L 639.383971 363.616079 
L 639.324596 363.620487 
L 626.838414 363.927087 
L 626.834121 363.927177 
L 624.753219 363.9634 
L 599.661264 364.400186 
L 597.896342 364.43091 
L 591.717687 365.065431 
L 591.671962 365.06837 
L 587.488115 365.177505 
L 582.476894 365.350563 
L 575.223326 365.681302 
L 575.216694 365.681568 
L 542.682655 366.805117 
L 540.855189 366.86823 
L 524.304214 367.439811 
L 522.314991 367.508507 
L 430.362398 370.684068 
L 427.488813 370.783315 
L 373.969208 372.631594 
L 372.864505 372.669741 
L 266.312981 376.349483 
L 225.216253 377.768745 
L 225.214195 377.768813 
L 223.335346 377.827252 
L 216.113814 378.060957 
L 214.011493 378.128994 
L 206.78385 378.362904 
L 204.682462 378.452939 
L 204.676915 378.453152 
L 197.453866 378.695809 
L 195.35163 378.76641 
L 188.140812 379.008655 
L 186.036688 379.089384 
L 186.034741 379.089456 
L 178.821611 379.342791 
L 176.719487 379.416625 
L 169.508879 379.669871 
L 169.506026 379.669965 
L 167.411116 379.733578 
L 160.224189 379.964998 
L 158.121858 380.0327 
L 151.257481 380.253734 
L 143.240535 380.511878 
L 143.235505 380.512018 
L 143.225567 380.512255 
L 143.21485 380.512415 
L 143.204942 380.512474 
L 143.194789 380.512449 
L 143.184861 380.512341 
L 143.174107 380.512127 
L 143.16419 380.511841 
L 143.153431 380.511435 
L 143.143523 380.510971 
L 143.133366 380.51041 
L 143.123468 380.509779 
L 143.112729 380.508998 
L 143.102841 380.50819 
L 143.092128 380.507218 
L 143.08225 380.506232 
L 143.073203 380.50526 
L 143.063354 380.504126 
L 143.05152 380.502645 
L 143.041681 380.501314 
L 143.03207 380.499935 
L 143.022261 380.498446 
L 143.012082 380.496812 
L 143.002302 380.495156 
L 142.99042 380.49302 
L 142.98067 380.491167 
L 142.971593 380.489369 
L 142.961882 380.487368 
L 142.951806 380.485201 
L 142.942125 380.483032 
L 142.93183 380.48063 
L 142.922199 380.478294 
L 142.911252 380.475529 
L 142.90164 380.473005 
L 142.893351 380.470766 
L 142.883808 380.468114 
L 142.871589 380.464578 
L 142.862086 380.461719 
L 142.852699 380.458812 
L 142.843234 380.455795 
L 142.83391 380.452738 
L 142.824515 380.449574 
L 142.813994 380.445921 
L 142.804648 380.442579 
L 142.795398 380.439186 
L 142.786121 380.435696 
L 142.77556 380.431608 
L 142.766342 380.427941 
L 142.756898 380.42409 
L 142.747739 380.420265 
L 142.738655 380.416383 
L 142.729565 380.412409 
L 142.719325 380.407819 
L 142.710314 380.403678 
L 142.70109 380.399344 
L 142.692119 380.395036 
L 142.683271 380.390698 
L 142.674428 380.386271 
L 142.663505 380.380663 
L 142.654721 380.376039 
L 142.646701 380.37174 
L 142.637996 380.366988 
L 142.628418 380.361645 
L 142.619801 380.356735 
L 142.611028 380.351638 
L 142.60249 380.34658 
L 142.59355 380.341179 
L 142.585102 380.335973 
L 142.575989 380.330246 
L 142.567639 380.324892 
L 142.559039 380.319275 
L 142.550788 380.313783 
L 142.542026 380.30784 
L 142.533853 380.302191 
L 142.524897 380.295879 
L 142.516842 380.290092 
L 142.508548 380.284024 
L 142.500592 380.278099 
L 142.492408 380.271894 
L 142.484551 380.265831 
L 142.476266 380.259321 
L 142.468527 380.25313 
L 142.460157 380.246309 
L 142.452507 380.23996 
L 142.445538 380.234087 
L 142.438016 380.227649 
L 142.428996 380.219772 
L 142.421582 380.213166 
L 142.414084 380.206372 
L 142.406789 380.199648 
L 142.399396 380.192718 
L 142.392219 380.185876 
L 142.384337 380.178223 
L 142.377288 380.171253 
L 142.370143 380.164068 
L 142.363203 380.156969 
L 142.355871 380.149337 
L 142.349069 380.14213 
L 142.341362 380.133809 
L 142.334678 380.126454 
L 142.328696 380.119773 
L 142.32214 380.112339 
L 142.314969 380.104058 
L 142.308541 380.096496 
L 142.30149 380.088045 
L 142.2952 380.080365 
L 142.28877 380.072374 
L 142.282618 380.064596 
L 142.275875 380.055907 
L 142.269861 380.04801 
L 142.264204 380.040459 
L 142.258319 380.032474 
L 142.252011 380.023752 
L 142.246273 380.015668 
L 142.240585 380.007512 
L 142.234986 379.999339 
L 142.227978 379.988877 
L 142.222536 379.980566 
L 142.217778 379.973182 
L 142.212464 379.964802 
L 142.206947 379.955932 
L 142.201781 379.947463 
L 142.196113 379.937976 
L 142.191095 379.929399 
L 142.185829 379.920211 
L 142.180978 379.911575 
L 142.176054 379.90263 
L 142.171342 379.893895 
L 142.166473 379.88468 
L 142.161908 379.875856 
L 142.156971 379.866094 
L 142.152574 379.857201 
L 142.148606 379.849022 
L 142.144347 379.84007 
L 142.139293 379.829166 
L 142.135211 379.820125 
L 142.131219 379.811084 
L 142.127285 379.801974 
L 142.123111 379.792066 
L 142.119345 379.782897 
L 142.115387 379.773011 
L 142.111779 379.763764 
L 142.108224 379.754425 
L 142.104774 379.745128 
L 142.101051 379.73481 
L 142.097768 379.725444 
L 142.094537 379.715974 
L 142.091412 379.706558 
L 142.088284 379.69686 
L 142.085316 379.687385 
L 142.081969 379.676327 
L 142.079189 379.666813 
L 142.07646 379.657177 
L 142.073838 379.647614 
L 142.07113 379.637385 
L 142.068675 379.627773 
L 142.066284 379.618076 
L 142.063987 379.608414 
L 142.061568 379.597813 
L 142.059448 379.588121 
L 142.057194 379.577344 
L 142.055252 379.567613 
L 142.053427 379.558065 
L 142.051642 379.548305 
L 142.049892 379.538246 
L 142.048275 379.528465 
L 142.046581 379.517605 
L 142.045142 379.507785 
L 142.043746 379.497662 
L 142.042474 379.487823 
L 142.041184 379.477084 
L 142.04009 379.467225 
L 142.039043 379.457001 
L 142.038117 379.447112 
L 142.037168 379.435848 
L 142.036429 379.42596 
L 142.03579 379.416402 
L 142.035209 379.406504 
L 142.034697 379.396317 
L 142.034283 379.386399 
L 142.033926 379.375467 
L 142.033689 379.365411 
L 142.033586 379.359987 
L 141.976633 375.431939 
L 141.977313 375.393359 
L 142.046815 373.996527 
L 142.047427 373.986059 
L 142.14129 372.590646 
L 142.142246 372.57833 
L 142.308323 370.689898 
L 142.30851 370.687814 
L 142.643681 367.022866 
L 142.943274 363.356237 
L 143.012202 362.460596 
L 143.087746 353.846308 
L 142.776913 345.971946 
L 142.343106 340.502514 
L 142.337445 340.497252 
L 142.334596 340.494561 
L 142.326891 340.487151 
L 142.324092 340.484411 
L 142.315002 340.47532 
L 142.312271 340.47253 
L 142.307069 340.467148 
L 142.304367 340.464319 
L 142.296354 340.455759 
L 142.293702 340.452871 
L 142.286474 340.444854 
L 142.283881 340.441926 
L 142.278261 340.435487 
L 142.275708 340.43252 
L 142.268086 340.423483 
L 142.265592 340.420467 
L 142.259476 340.412947 
L 142.257031 340.409891 
L 142.249572 340.400371 
L 142.247196 340.397275 
L 142.240993 340.389049 
L 142.238657 340.385894 
L 142.233803 340.379245 
L 142.231526 340.37608 
L 142.224716 340.366418 
L 142.222498 340.363204 
L 142.216599 340.354496 
L 142.214431 340.351233 
L 142.208042 340.341413 
L 142.205932 340.338101 
L 142.201002 340.330226 
L 142.198951 340.326894 
L 142.193713 340.318219 
L 142.191722 340.314857 
L 142.186249 340.305423 
L 142.184316 340.302022 
L 142.178684 340.29188 
L 142.176811 340.28843 
L 142.172706 340.280736 
L 142.170892 340.277275 
L 142.165942 340.267621 
L 142.164197 340.264141 
L 142.159159 340.253849 
L 142.157463 340.2503 
L 142.153138 340.241044 
L 142.151511 340.237485 
L 142.147372 340.228224 
L 142.145805 340.224635 
L 142.141294 340.214032 
L 142.139796 340.210414 
L 142.136729 340.202866 
L 142.13528 340.199228 
L 142.130999 340.188163 
L 142.129628 340.184516 
L 142.125807 340.174051 
L 142.124496 340.170354 
L 142.121071 340.160423 
L 142.119829 340.156716 
L 142.117155 340.14854 
L 142.115962 340.144804 
L 142.112838 340.134714 
L 142.111714 340.130967 
L 142.107861 340.11756 
L 142.106826 340.113794 
L 142.104907 340.106641 
L 142.103912 340.102835 
L 142.101224 340.092166 
L 142.100307 340.08838 
L 142.097733 340.077291 
L 142.096885 340.073475 
L 142.094771 340.063571 
L 142.093983 340.059716 
L 142.092096 340.050095 
L 142.091376 340.04626 
L 142.089491 340.035693 
L 142.08884 340.031848 
L 142.086584 340.01746 
L 142.085865 340.01248 
L 141.757289 337.856239 
L 141.755825 337.846046 
L 141.414449 335.315386 
L 141.41395 335.313211 
L 141.411753 335.303258 
L 141.405611 335.274263 
L 141.403434 335.263502 
L 141.397825 335.234408 
L 141.39598 335.224383 
L 141.390863 335.19519 
L 141.389107 335.184619 
L 141.384513 335.155348 
L 141.383024 335.145306 
L 141.378923 335.115946 
L 141.377515 335.105155 
L 141.373946 335.075726 
L 141.372823 335.065766 
L 141.369747 335.036298 
L 141.368732 335.025666 
L 141.366179 334.996128 
L 141.36536 334.985565 
L 141.363329 334.956008 
L 141.362704 334.945589 
L 141.361186 334.915983 
L 141.360743 334.905591 
L 141.359737 334.875965 
L 141.359471 334.86537 
L 141.358988 334.835724 
L 141.358909 334.825131 
L 141.358948 334.795525 
L 141.359052 334.785135 
L 141.359604 334.755489 
L 141.359888 334.745087 
L 141.360953 334.715471 
L 141.361428 334.704868 
L 141.363015 334.675281 
L 141.363648 334.665099 
L 141.365738 334.635532 
L 141.366596 334.624761 
L 141.369219 334.595223 
L 141.370239 334.584772 
L 141.373374 334.555313 
L 141.374542 334.545159 
L 141.37818 334.51574 
L 141.379561 334.505315 
L 141.383712 334.475975 
L 141.385334 334.465213 
L 141.390016 334.435942 
L 141.391705 334.425929 
L 141.396881 334.396746 
L 141.398791 334.386494 
L 141.40447 334.35742 
L 141.407579 334.342505 
L 141.419587 334.288359 
L 141.424477 334.267996 
L 141.437032 334.219448 
L 141.447524 334.175746 
L 141.457257 334.131858 
L 141.466198 334.087932 
L 141.474374 334.043765 
L 141.481803 333.9994 
L 141.488436 333.955028 
L 141.494298 333.910463 
L 141.499389 333.865836 
L 141.50369 333.821108 
L 141.507225 333.776303 
L 141.509962 333.731539 
L 141.511922 333.686621 
L 141.513105 333.641705 
L 141.513497 333.596839 
L 141.513105 333.551904 
L 141.51193 333.507006 
L 141.509972 333.462128 
L 141.507231 333.417309 
L 141.503858 333.374452 
L 141.49637 333.301589 
L 141.123852 330.898224 
L 141.115278 330.892127 
L 141.106465 330.885739 
L 141.097711 330.879272 
L 141.089356 330.872986 
L 141.08072 330.866371 
L 141.072067 330.859617 
L 141.06354 330.852834 
L 141.056071 330.846795 
L 141.047661 330.839884 
L 141.041376 330.834647 
L 141.033686 330.82815 
L 141.022398 330.818369 
L 141.013653 330.8106 
L 141.006478 330.804121 
L 140.998463 330.796766 
L 140.991687 330.790452 
L 140.983781 330.782969 
L 140.976015 330.775487 
L 140.968237 330.767856 
L 140.960615 330.760243 
L 140.952984 330.752484 
L 140.945497 330.744733 
L 140.938005 330.736836 
L 140.931433 330.729798 
L 140.924069 330.721782 
L 140.916591 330.71349 
L 140.909374 330.705337 
L 140.902518 330.697453 
L 140.895449 330.689182 
L 140.888991 330.681495 
L 140.88206 330.673105 
L 140.874993 330.664385 
L 140.86822 330.655867 
L 140.862046 330.647968 
L 140.855412 330.639331 
L 140.849314 330.631254 
L 140.842827 330.62251 
L 140.836608 330.61397 
L 140.830279 330.605116 
L 140.823778 330.595839 
L 140.817616 330.586867 
L 140.812126 330.578732 
L 140.806112 330.569662 
L 140.800598 330.561191 
L 140.794732 330.552013 
L 140.788794 330.542528 
L 140.783106 330.53325 
L 140.777813 330.52445 
L 140.772282 330.515074 
L 140.767043 330.506013 
L 140.76168 330.496549 
L 140.756699 330.487581 
L 140.751494 330.478017 
L 140.746337 330.468334 
L 140.7413 330.458663 
L 140.736444 330.449135 
L 140.731594 330.439404 
L 140.727215 330.430434 
L 140.722522 330.420614 
L 140.71819 330.411348 
L 140.713665 330.40145 
L 140.709095 330.3912 
L 140.704757 330.381223 
L 140.700842 330.372007 
L 140.696671 330.361961 
L 140.692762 330.352308 
L 140.68876 330.342173 
L 140.684876 330.332075 
L 140.681061 330.321881 
L 140.677464 330.312007 
L 140.673826 330.301744 
L 140.67046 330.291983 
L 140.667 330.281661 
L 140.663802 330.271843 
L 140.66052 330.261462 
L 140.657537 330.251745 
L 140.654432 330.241314 
L 140.65119 330.230025 
L 140.648292 330.219545 
L 140.645858 330.210468 
L 140.643117 330.199918 
L 140.64046 330.189293 
L 140.637916 330.178714 
L 140.635509 330.168297 
L 140.633153 330.157669 
L 140.631107 330.148069 
L 140.628928 330.137421 
L 140.626768 330.126334 
L 140.624707 330.115203 
L 140.621913 330.098851 
L 140.248127 327.713481 
L 140.246005 327.698749 
L 139.80033 324.307468 
L 139.797446 324.280998 
L 139.538697 321.292337 
L 138.949263 314.538629 
L 138.948798 314.532999 
L 138.747556 311.946722 
L 138.745757 311.896205 
L 138.74821 311.845716 
L 138.754897 311.795612 
L 138.796128 311.562066 
L 138.797317 311.553991 
L 138.798796 311.544497 
L 138.800423 311.534593 
L 138.80206 311.525128 
L 138.803989 311.514538 
L 138.805793 311.505113 
L 138.807986 311.494201 
L 138.809968 311.484796 
L 138.812178 311.474734 
L 138.814317 311.465378 
L 138.816492 311.456197 
L 138.81878 311.44687 
L 138.821591 311.435856 
L 138.824056 311.426569 
L 138.826746 311.416766 
L 138.829369 311.407518 
L 138.832548 311.396694 
L 138.835338 311.387516 
L 138.838196 311.378376 
L 138.841134 311.369237 
L 138.844508 311.359053 
L 138.847613 311.349954 
L 138.850904 311.340564 
L 138.854158 311.331524 
L 138.85838 311.320152 
L 138.861811 311.31119 
L 138.865155 311.302649 
L 138.868724 311.293736 
L 138.872727 311.283988 
L 138.876454 311.275135 
L 138.880722 311.265244 
L 138.884606 311.256459 
L 138.88905 311.246648 
L 138.893092 311.237932 
L 138.897348 311.22895 
L 138.901538 311.220294 
L 138.906434 311.210411 
L 138.910772 311.201854 
L 138.915196 311.193295 
L 138.919682 311.184787 
L 138.924816 311.175258 
L 138.929439 311.166859 
L 138.934696 311.157506 
L 138.939478 311.149175 
L 138.944933 311.139865 
L 138.949862 311.131623 
L 138.955312 311.122688 
L 138.960389 311.114525 
L 138.965781 311.106015 
L 138.970986 311.09795 
L 138.976916 311.088942 
L 138.982269 311.080966 
L 138.988059 311.072497 
L 138.99355 311.06461 
L 138.999395 311.056364 
L 139.005014 311.048575 
L 139.01152 311.039728 
L 139.017278 311.032048 
L 139.023718 311.023614 
L 139.029613 311.016032 
L 139.036191 311.007725 
L 139.042224 311.000242 
L 139.048581 310.992491 
L 139.054733 310.985117 
L 139.061533 310.977108 
L 139.067813 310.969842 
L 139.075024 310.961649 
L 139.081432 310.954501 
L 139.087917 310.947384 
L 139.094443 310.940335 
L 139.102224 310.932088 
L 139.108878 310.925167 
L 139.1162 310.917684 
L 139.122953 310.910901 
L 139.130065 310.903875 
L 139.136986 310.897151 
L 139.144908 310.889593 
L 139.151917 310.883027 
L 139.158996 310.876501 
L 139.166104 310.870053 
L 139.174564 310.862523 
L 139.1818 310.856204 
L 139.189467 310.849621 
L 139.196802 310.843429 
L 139.205566 310.836172 
L 139.213019 310.830119 
L 139.221228 310.823569 
L 139.228789 310.817644 
L 139.235818 310.81222 
L 139.243458 310.806413 
L 139.252158 310.799923 
L 139.259917 310.794245 
L 139.269352 310.787478 
L 139.277209 310.781957 
L 139.285236 310.776413 
L 139.293182 310.77102 
L 139.302443 310.764859 
L 139.310488 310.759614 
L 139.318417 310.754532 
L 139.32654 310.749415 
L 139.336273 310.743414 
L 139.344504 310.738445 
L 139.353246 310.733268 
L 139.361547 310.728447 
L 139.370928 310.723111 
L 139.379318 310.718437 
L 139.387789 310.713807 
L 139.396247 310.709272 
L 139.40579 310.704266 
L 139.414337 310.699878 
L 139.424198 310.694931 
L 139.432824 310.690701 
L 139.442534 310.686047 
L 139.451229 310.681976 
L 139.459489 310.678183 
L 139.468253 310.67424 
L 139.47841 310.669782 
L 139.487233 310.666006 
L 139.497395 310.661767 
L 139.506297 310.658148 
L 139.514853 310.654753 
L 139.548227 310.183957 
L 139.537937 310.180372 
L 139.525465 310.175896 
L 139.516427 310.17257 
L 139.504035 310.167897 
L 139.494118 310.164057 
L 139.481815 310.159167 
L 139.471362 310.154898 
L 139.459138 310.149772 
L 139.450504 310.146071 
L 139.438368 310.140758 
L 139.427967 310.136085 
L 139.41594 310.130545 
L 139.406875 310.126277 
L 139.394926 310.120529 
L 139.385062 310.115672 
L 139.373241 310.109718 
L 139.364341 310.10514 
L 139.352619 310.098988 
L 139.343457 310.094079 
L 139.331834 310.08772 
L 139.322391 310.082443 
L 139.310886 310.075877 
L 139.302201 310.070823 
L 139.290814 310.06407 
L 139.281235 310.058267 
L 139.269967 310.051297 
L 139.261668 310.04607 
L 139.250508 310.038912 
L 139.241483 310.033009 
L 139.230471 310.025664 
L 139.222156 310.020017 
L 139.211262 310.012485 
L 139.202041 310.00598 
L 139.191285 309.998241 
L 139.183422 309.992486 
L 139.172814 309.984589 
L 139.163487 309.977503 
L 139.153007 309.969379 
L 139.14577 309.963679 
L 139.135419 309.955398 
L 139.126858 309.948419 
L 139.116675 309.939961 
L 139.108631 309.93316 
L 139.098585 309.924513 
L 139.090738 309.917639 
L 139.080849 309.908826 
L 139.073338 309.902015 
L 139.063598 309.893034 
L 139.055761 309.885677 
L 139.046188 309.876528 
L 139.038927 309.86947 
L 139.029513 309.860164 
L 139.02171 309.852307 
L 139.012463 309.842823 
L 139.005461 309.83552 
L 138.996372 309.825878 
L 138.989055 309.817977 
L 138.980143 309.808177 
L 138.973162 309.800364 
L 138.964427 309.790417 
L 138.957797 309.782736 
L 138.94923 309.772641 
L 138.942735 309.764855 
L 138.934336 309.754612 
L 138.927203 309.745742 
L 138.91899 309.735331 
L 138.912697 309.727211 
L 138.904672 309.716671 
L 138.898564 309.708507 
L 138.890716 309.69783 
L 138.884481 309.689186 
L 138.876831 309.67838 
L 138.870807 309.669712 
L 138.863344 309.658769 
L 138.857142 309.64949 
L 138.849876 309.638399 
L 138.845029 309.630879 
L 138.837941 309.619699 
L 138.831987 309.610109 
L 138.825106 309.598791 
L 138.819763 309.58983 
L 138.813079 309.578394 
L 138.807812 309.569195 
L 138.801334 309.557651 
L 138.796311 309.548512 
L 138.790031 309.536849 
L 138.784992 309.527286 
L 138.77892 309.515504 
L 138.774324 309.5064 
L 138.768458 309.49453 
L 138.763846 309.484986 
L 138.758187 309.473007 
L 138.753994 309.463936 
L 138.748532 309.451859 
L 138.744148 309.441926 
L 138.738913 309.429769 
L 138.734883 309.420185 
L 138.729856 309.40793 
L 138.725907 309.398059 
L 138.721096 309.385716 
L 138.717379 309.375928 
L 138.712785 309.363506 
L 138.70919 309.353513 
L 138.704813 309.341002 
L 138.701488 309.331232 
L 138.697328 309.318652 
L 138.694171 309.308823 
L 138.690227 309.296174 
L 138.687034 309.28559 
L 138.683328 309.272882 
L 138.680636 309.263362 
L 138.677136 309.250585 
L 138.674418 309.240307 
L 138.671145 309.227471 
L 138.668634 309.217249 
L 138.665587 309.204363 
L 138.663234 309.193999 
L 138.660414 309.181054 
L 138.658402 309.171439 
L 138.6558 309.158475 
L 138.65368 309.147374 
L 138.651314 309.134321 
L 138.649555 309.124117 
L 138.647415 309.111034 
L 138.645831 309.10079 
L 138.643918 309.087678 
L 138.642517 309.077459 
L 138.640831 309.064327 
L 138.63955 309.05358 
L 138.638101 309.040418 
L 138.637055 309.030099 
L 138.635832 309.016907 
L 138.634968 309.006619 
L 138.633972 308.993408 
L 138.633262 308.982715 
L 138.632503 308.969504 
L 138.631841 308.954886 
L 138.631427 308.942352 
L 138.445824 306.359451 
L 138.445296 306.353832 
L 138.444407 306.343389 
L 138.44348 306.331252 
L 138.442788 306.321042 
L 138.442069 306.308896 
L 138.441548 306.29861 
L 138.441035 306.286424 
L 138.440681 306.275769 
L 138.440385 306.263603 
L 138.440224 306.253376 
L 138.440135 306.241201 
L 138.440158 306.230009 
L 138.440296 306.217833 
L 138.440498 306.207634 
L 138.440843 306.195449 
L 138.44122 306.185215 
L 138.441772 306.173049 
L 138.442325 306.162806 
L 138.443084 306.15066 
L 138.443841 306.140049 
L 138.444817 306.127893 
L 138.445838 306.11653 
L 138.447041 306.104433 
L 138.448015 306.095341 
L 138.449405 306.083234 
L 138.450878 306.071436 
L 138.452504 306.059378 
L 138.453808 306.050249 
L 138.455622 306.038201 
L 138.457324 306.027543 
L 138.459355 306.015525 
L 138.461313 306.004559 
L 138.463561 305.99261 
L 138.466422 305.978349 
L 138.471292 305.955515 
L 138.48572 305.900691 
L 138.505249 305.847469 
L 138.563807 305.708528 
L 138.618057 305.573271 
L 138.669871 305.437218 
L 138.708794 305.329256 
" style="fill:#1f77b4;"/>
   </g>
   <g id="matplotlib.axis_1">
    <g id="xtick_1">
     <g id="line2d_1">
      <defs>
       <path d="M 0 0 
L 0 3.5 
" id="m2d1d0dfcaa" style="stroke:#000000;stroke-width:0.8;"/>
      </defs>
      <g>
       <use style="stroke:#000000;stroke-width:0.8;" x="164.962848" xlink:href="#m2d1d0dfcaa" y="385.839721"/>
      </g>
     </g>
     <g id="text_1">
      <!-- 1.4200 -->
      <g transform="translate(147.467536 400.438159)scale(0.1 -0.1)">
       <defs>
        <path d="M 12.40625 8.296875 
L 28.515625 8.296875 
L 28.515625 63.921875 
L 10.984375 60.40625 
L 10.984375 69.390625 
L 28.421875 72.90625 
L 38.28125 72.90625 
L 38.28125 8.296875 
L 54.390625 8.296875 
L 54.390625 0 
L 12.40625 0 
z
" id="DejaVuSans-49"/>
        <path d="M 10.6875 12.40625 
L 21 12.40625 
L 21 0 
L 10.6875 0 
z
" id="DejaVuSans-46"/>
        <path d="M 37.796875 64.3125 
L 12.890625 25.390625 
L 37.796875 25.390625 
z
M 35.203125 72.90625 
L 47.609375 72.90625 
L 47.609375 25.390625 
L 58.015625 25.390625 
L 58.015625 17.1875 
L 47.609375 17.1875 
L 47.609375 0 
L 37.796875 0 
L 37.796875 17.1875 
L 4.890625 17.1875 
L 4.890625 26.703125 
z
" id="DejaVuSans-52"/>
        <path d="M 19.1875 8.296875 
L 53.609375 8.296875 
L 53.609375 0 
L 7.328125 0 
L 7.328125 8.296875 
Q 12.9375 14.109375 22.625 23.890625 
Q 32.328125 33.6875 34.8125 36.53125 
Q 39.546875 41.84375 41.421875 45.53125 
Q 43.3125 49.21875 43.3125 52.78125 
Q 43.3125 58.59375 39.234375 62.25 
Q 35.15625 65.921875 28.609375 65.921875 
Q 23.96875 65.921875 18.8125 64.3125 
Q 13.671875 62.703125 7.8125 59.421875 
L 7.8125 69.390625 
Q 13.765625 71.78125 18.9375 73 
Q 24.125 74.21875 28.421875 74.21875 
Q 39.75 74.21875 46.484375 68.546875 
Q 53.21875 62.890625 53.21875 53.421875 
Q 53.21875 48.921875 51.53125 44.890625 
Q 49.859375 40.875 45.40625 35.40625 
Q 44.1875 33.984375 37.640625 27.21875 
Q 31.109375 20.453125 19.1875 8.296875 
z
" id="DejaVuSans-50"/>
        <path d="M 31.78125 66.40625 
Q 24.171875 66.40625 20.328125 58.90625 
Q 16.5 51.421875 16.5 36.375 
Q 16.5 21.390625 20.328125 13.890625 
Q 24.171875 6.390625 31.78125 6.390625 
Q 39.453125 6.390625 43.28125 13.890625 
Q 47.125 21.390625 47.125 36.375 
Q 47.125 51.421875 43.28125 58.90625 
Q 39.453125 66.40625 31.78125 66.40625 
z
M 31.78125 74.21875 
Q 44.046875 74.21875 50.515625 64.515625 
Q 56.984375 54.828125 56.984375 36.375 
Q 56.984375 17.96875 50.515625 8.265625 
Q 44.046875 -1.421875 31.78125 -1.421875 
Q 19.53125 -1.421875 13.0625 8.265625 
Q 6.59375 17.96875 6.59375 36.375 
Q 6.59375 54.828125 13.0625 64.515625 
Q 19.53125 74.21875 31.78125 74.21875 
z
" id="DejaVuSans-48"/>
       </defs>
       <use xlink:href="#DejaVuSans-49"/>
       <use x="63.623047" xlink:href="#DejaVuSans-46"/>
       <use x="95.410156" xlink:href="#DejaVuSans-52"/>
       <use x="159.033203" xlink:href="#DejaVuSans-50"/>
       <use x="222.65625" xlink:href="#DejaVuSans-48"/>
       <use x="286.279297" xlink:href="#DejaVuSans-48"/>
      </g>
     </g>
    </g>
    <g id="xtick_2">
     <g id="line2d_2">
      <g>
       <use style="stroke:#000000;stroke-width:0.8;" x="240.087685" xlink:href="#m2d1d0dfcaa" y="385.839721"/>
      </g>
     </g>
     <g id="text_2">
      <!-- 1.4225 -->
      <g transform="translate(222.592372 400.438159)scale(0.1 -0.1)">
       <defs>
        <path d="M 10.796875 72.90625 
L 49.515625 72.90625 
L 49.515625 64.59375 
L 19.828125 64.59375 
L 19.828125 46.734375 
Q 21.96875 47.46875 24.109375 47.828125 
Q 26.265625 48.1875 28.421875 48.1875 
Q 40.625 48.1875 47.75 41.5 
Q 54.890625 34.8125 54.890625 23.390625 
Q 54.890625 11.625 47.5625 5.09375 
Q 40.234375 -1.421875 26.90625 -1.421875 
Q 22.3125 -1.421875 17.546875 -0.640625 
Q 12.796875 0.140625 7.71875 1.703125 
L 7.71875 11.625 
Q 12.109375 9.234375 16.796875 8.0625 
Q 21.484375 6.890625 26.703125 6.890625 
Q 35.15625 6.890625 40.078125 11.328125 
Q 45.015625 15.765625 45.015625 23.390625 
Q 45.015625 31 40.078125 35.4375 
Q 35.15625 39.890625 26.703125 39.890625 
Q 22.75 39.890625 18.8125 39.015625 
Q 14.890625 38.140625 10.796875 36.28125 
z
" id="DejaVuSans-53"/>
       </defs>
       <use xlink:href="#DejaVuSans-49"/>
       <use x="63.623047" xlink:href="#DejaVuSans-46"/>
       <use x="95.410156" xlink:href="#DejaVuSans-52"/>
       <use x="159.033203" xlink:href="#DejaVuSans-50"/>
       <use x="222.65625" xlink:href="#DejaVuSans-50"/>
       <use x="286.279297" xlink:href="#DejaVuSans-53"/>
      </g>
     </g>
    </g>
    <g id="xtick_3">
     <g id="line2d_3">
      <g>
       <use style="stroke:#000000;stroke-width:0.8;" x="315.212521" xlink:href="#m2d1d0dfcaa" y="385.839721"/>
      </g>
     </g>
     <g id="text_3">
      <!-- 1.4250 -->
      <g transform="translate(297.717208 400.438159)scale(0.1 -0.1)">
       <use xlink:href="#DejaVuSans-49"/>
       <use x="63.623047" xlink:href="#DejaVuSans-46"/>
       <use x="95.410156" xlink:href="#DejaVuSans-52"/>
       <use x="159.033203" xlink:href="#DejaVuSans-50"/>
       <use x="222.65625" xlink:href="#DejaVuSans-53"/>
       <use x="286.279297" xlink:href="#DejaVuSans-48"/>
      </g>
     </g>
    </g>
    <g id="xtick_4">
     <g id="line2d_4">
      <g>
       <use style="stroke:#000000;stroke-width:0.8;" x="390.337357" xlink:href="#m2d1d0dfcaa" y="385.839721"/>
      </g>
     </g>
     <g id="text_4">
      <!-- 1.4275 -->
      <g transform="translate(372.842045 400.438159)scale(0.1 -0.1)">
       <defs>
        <path d="M 8.203125 72.90625 
L 55.078125 72.90625 
L 55.078125 68.703125 
L 28.609375 0 
L 18.3125 0 
L 43.21875 64.59375 
L 8.203125 64.59375 
z
" id="DejaVuSans-55"/>
       </defs>
       <use xlink:href="#DejaVuSans-49"/>
       <use x="63.623047" xlink:href="#DejaVuSans-46"/>
       <use x="95.410156" xlink:href="#DejaVuSans-52"/>
       <use x="159.033203" xlink:href="#DejaVuSans-50"/>
       <use x="222.65625" xlink:href="#DejaVuSans-55"/>
       <use x="286.279297" xlink:href="#DejaVuSans-53"/>
      </g>
     </g>
    </g>
    <g id="xtick_5">
     <g id="line2d_5">
      <g>
       <use style="stroke:#000000;stroke-width:0.8;" x="465.462194" xlink:href="#m2d1d0dfcaa" y="385.839721"/>
      </g>
     </g>
     <g id="text_5">
      <!-- 1.4300 -->
      <g transform="translate(447.966881 400.438159)scale(0.1 -0.1)">
       <defs>
        <path d="M 40.578125 39.3125 
Q 47.65625 37.796875 51.625 33 
Q 55.609375 28.21875 55.609375 21.1875 
Q 55.609375 10.40625 48.1875 4.484375 
Q 40.765625 -1.421875 27.09375 -1.421875 
Q 22.515625 -1.421875 17.65625 -0.515625 
Q 12.796875 0.390625 7.625 2.203125 
L 7.625 11.71875 
Q 11.71875 9.328125 16.59375 8.109375 
Q 21.484375 6.890625 26.8125 6.890625 
Q 36.078125 6.890625 40.9375 10.546875 
Q 45.796875 14.203125 45.796875 21.1875 
Q 45.796875 27.640625 41.28125 31.265625 
Q 36.765625 34.90625 28.71875 34.90625 
L 20.21875 34.90625 
L 20.21875 43.015625 
L 29.109375 43.015625 
Q 36.375 43.015625 40.234375 45.921875 
Q 44.09375 48.828125 44.09375 54.296875 
Q 44.09375 59.90625 40.109375 62.90625 
Q 36.140625 65.921875 28.71875 65.921875 
Q 24.65625 65.921875 20.015625 65.03125 
Q 15.375 64.15625 9.8125 62.3125 
L 9.8125 71.09375 
Q 15.4375 72.65625 20.34375 73.4375 
Q 25.25 74.21875 29.59375 74.21875 
Q 40.828125 74.21875 47.359375 69.109375 
Q 53.90625 64.015625 53.90625 55.328125 
Q 53.90625 49.265625 50.4375 45.09375 
Q 46.96875 40.921875 40.578125 39.3125 
z
" id="DejaVuSans-51"/>
       </defs>
       <use xlink:href="#DejaVuSans-49"/>
       <use x="63.623047" xlink:href="#DejaVuSans-46"/>
       <use x="95.410156" xlink:href="#DejaVuSans-52"/>
       <use x="159.033203" xlink:href="#DejaVuSans-51"/>
       <use x="222.65625" xlink:href="#DejaVuSans-48"/>
       <use x="286.279297" xlink:href="#DejaVuSans-48"/>
      </g>
     </g>
    </g>
    <g id="xtick_6">
     <g id="line2d_6">
      <g>
       <use style="stroke:#000000;stroke-width:0.8;" x="540.58703" xlink:href="#m2d1d0dfcaa" y="385.839721"/>
      </g>
     </g>
     <g id="text_6">
      <!-- 1.4325 -->
      <g transform="translate(523.091718 400.438159)scale(0.1 -0.1)">
       <use xlink:href="#DejaVuSans-49"/>
       <use x="63.623047" xlink:href="#DejaVuSans-46"/>
       <use x="95.410156" xlink:href="#DejaVuSans-52"/>
       <use x="159.033203" xlink:href="#DejaVuSans-51"/>
       <use x="222.65625" xlink:href="#DejaVuSans-50"/>
       <use x="286.279297" xlink:href="#DejaVuSans-53"/>
      </g>
     </g>
    </g>
    <g id="xtick_7">
     <g id="line2d_7">
      <g>
       <use style="stroke:#000000;stroke-width:0.8;" x="615.711867" xlink:href="#m2d1d0dfcaa" y="385.839721"/>
      </g>
     </g>
     <g id="text_7">
      <!-- 1.4350 -->
      <g transform="translate(598.216554 400.438159)scale(0.1 -0.1)">
       <use xlink:href="#DejaVuSans-49"/>
       <use x="63.623047" xlink:href="#DejaVuSans-46"/>
       <use x="95.410156" xlink:href="#DejaVuSans-52"/>
       <use x="159.033203" xlink:href="#DejaVuSans-51"/>
       <use x="222.65625" xlink:href="#DejaVuSans-53"/>
       <use x="286.279297" xlink:href="#DejaVuSans-48"/>
      </g>
     </g>
    </g>
    <g id="xtick_8">
     <g id="line2d_8">
      <g>
       <use style="stroke:#000000;stroke-width:0.8;" x="690.836703" xlink:href="#m2d1d0dfcaa" y="385.839721"/>
      </g>
     </g>
     <g id="text_8">
      <!-- 1.4375 -->
      <g transform="translate(673.341391 400.438159)scale(0.1 -0.1)">
       <use xlink:href="#DejaVuSans-49"/>
       <use x="63.623047" xlink:href="#DejaVuSans-46"/>
       <use x="95.410156" xlink:href="#DejaVuSans-52"/>
       <use x="159.033203" xlink:href="#DejaVuSans-51"/>
       <use x="222.65625" xlink:href="#DejaVuSans-55"/>
       <use x="286.279297" xlink:href="#DejaVuSans-53"/>
      </g>
     </g>
    </g>
    <g id="xtick_9">
     <g id="line2d_9">
      <g>
       <use style="stroke:#000000;stroke-width:0.8;" x="765.96154" xlink:href="#m2d1d0dfcaa" y="385.839721"/>
      </g>
     </g>
     <g id="text_9">
      <!-- 1.4400 -->
      <g transform="translate(748.466227 400.438159)scale(0.1 -0.1)">
       <use xlink:href="#DejaVuSans-49"/>
       <use x="63.623047" xlink:href="#DejaVuSans-46"/>
       <use x="95.410156" xlink:href="#DejaVuSans-52"/>
       <use x="159.033203" xlink:href="#DejaVuSans-52"/>
       <use x="222.65625" xlink:href="#DejaVuSans-48"/>
       <use x="286.279297" xlink:href="#DejaVuSans-48"/>
      </g>
     </g>
    </g>
    <g id="text_10">
     <!-- 1e6 -->
     <g transform="translate(758.721875 413.116284)scale(0.1 -0.1)">
      <defs>
       <path d="M 56.203125 29.59375 
L 56.203125 25.203125 
L 14.890625 25.203125 
Q 15.484375 15.921875 20.484375 11.0625 
Q 25.484375 6.203125 34.421875 6.203125 
Q 39.59375 6.203125 44.453125 7.46875 
Q 49.3125 8.734375 54.109375 11.28125 
L 54.109375 2.78125 
Q 49.265625 0.734375 44.1875 -0.34375 
Q 39.109375 -1.421875 33.890625 -1.421875 
Q 20.796875 -1.421875 13.15625 6.1875 
Q 5.515625 13.8125 5.515625 26.8125 
Q 5.515625 40.234375 12.765625 48.109375 
Q 20.015625 56 32.328125 56 
Q 43.359375 56 49.78125 48.890625 
Q 56.203125 41.796875 56.203125 29.59375 
z
M 47.21875 32.234375 
Q 47.125 39.59375 43.09375 43.984375 
Q 39.0625 48.390625 32.421875 48.390625 
Q 24.90625 48.390625 20.390625 44.140625 
Q 15.875 39.890625 15.1875 32.171875 
z
" id="DejaVuSans-101"/>
       <path d="M 33.015625 40.375 
Q 26.375 40.375 22.484375 35.828125 
Q 18.609375 31.296875 18.609375 23.390625 
Q 18.609375 15.53125 22.484375 10.953125 
Q 26.375 6.390625 33.015625 6.390625 
Q 39.65625 6.390625 43.53125 10.953125 
Q 47.40625 15.53125 47.40625 23.390625 
Q 47.40625 31.296875 43.53125 35.828125 
Q 39.65625 40.375 33.015625 40.375 
z
M 52.59375 71.296875 
L 52.59375 62.3125 
Q 48.875 64.0625 45.09375 64.984375 
Q 41.3125 65.921875 37.59375 65.921875 
Q 27.828125 65.921875 22.671875 59.328125 
Q 17.53125 52.734375 16.796875 39.40625 
Q 19.671875 43.65625 24.015625 45.921875 
Q 28.375 48.1875 33.59375 48.1875 
Q 44.578125 48.1875 50.953125 41.515625 
Q 57.328125 34.859375 57.328125 23.390625 
Q 57.328125 12.15625 50.6875 5.359375 
Q 44.046875 -1.421875 33.015625 -1.421875 
Q 20.359375 -1.421875 13.671875 8.265625 
Q 6.984375 17.96875 6.984375 36.375 
Q 6.984375 53.65625 15.1875 63.9375 
Q 23.390625 74.21875 37.203125 74.21875 
Q 40.921875 74.21875 44.703125 73.484375 
Q 48.484375 72.75 52.59375 71.296875 
z
" id="DejaVuSans-54"/>
      </defs>
      <use xlink:href="#DejaVuSans-49"/>
      <use x="63.623047" xlink:href="#DejaVuSans-101"/>
      <use x="125.146484" xlink:href="#DejaVuSans-54"/>
     </g>
    </g>
   </g>
   <g id="matplotlib.axis_2">
    <g id="ytick_1">
     <g id="line2d_10">
      <defs>
       <path d="M 0 0 
L -3.5 0 
" id="m2dc7ecd19e" style="stroke:#000000;stroke-width:0.8;"/>
      </defs>
      <g>
       <use style="stroke:#000000;stroke-width:0.8;" x="108" xlink:href="#m2dc7ecd19e" y="365.35447"/>
      </g>
     </g>
     <g id="text_11">
      <!-- 467000 -->
      <g transform="translate(62.825 369.153688)scale(0.1 -0.1)">
       <use xlink:href="#DejaVuSans-52"/>
       <use x="63.623047" xlink:href="#DejaVuSans-54"/>
       <use x="127.246094" xlink:href="#DejaVuSans-55"/>
       <use x="190.869141" xlink:href="#DejaVuSans-48"/>
       <use x="254.492188" xlink:href="#DejaVuSans-48"/>
       <use x="318.115234" xlink:href="#DejaVuSans-48"/>
      </g>
     </g>
    </g>
    <g id="ytick_2">
     <g id="line2d_11">
      <g>
       <use style="stroke:#000000;stroke-width:0.8;" x="108" xlink:href="#m2dc7ecd19e" y="335.304535"/>
      </g>
     </g>
     <g id="text_12">
      <!-- 468000 -->
      <g transform="translate(62.825 339.103754)scale(0.1 -0.1)">
       <defs>
        <path d="M 31.78125 34.625 
Q 24.75 34.625 20.71875 30.859375 
Q 16.703125 27.09375 16.703125 20.515625 
Q 16.703125 13.921875 20.71875 10.15625 
Q 24.75 6.390625 31.78125 6.390625 
Q 38.8125 6.390625 42.859375 10.171875 
Q 46.921875 13.96875 46.921875 20.515625 
Q 46.921875 27.09375 42.890625 30.859375 
Q 38.875 34.625 31.78125 34.625 
z
M 21.921875 38.8125 
Q 15.578125 40.375 12.03125 44.71875 
Q 8.5 49.078125 8.5 55.328125 
Q 8.5 64.0625 14.71875 69.140625 
Q 20.953125 74.21875 31.78125 74.21875 
Q 42.671875 74.21875 48.875 69.140625 
Q 55.078125 64.0625 55.078125 55.328125 
Q 55.078125 49.078125 51.53125 44.71875 
Q 48 40.375 41.703125 38.8125 
Q 48.828125 37.15625 52.796875 32.3125 
Q 56.78125 27.484375 56.78125 20.515625 
Q 56.78125 9.90625 50.3125 4.234375 
Q 43.84375 -1.421875 31.78125 -1.421875 
Q 19.734375 -1.421875 13.25 4.234375 
Q 6.78125 9.90625 6.78125 20.515625 
Q 6.78125 27.484375 10.78125 32.3125 
Q 14.796875 37.15625 21.921875 38.8125 
z
M 18.3125 54.390625 
Q 18.3125 48.734375 21.84375 45.5625 
Q 25.390625 42.390625 31.78125 42.390625 
Q 38.140625 42.390625 41.71875 45.5625 
Q 45.3125 48.734375 45.3125 54.390625 
Q 45.3125 60.0625 41.71875 63.234375 
Q 38.140625 66.40625 31.78125 66.40625 
Q 25.390625 66.40625 21.84375 63.234375 
Q 18.3125 60.0625 18.3125 54.390625 
z
" id="DejaVuSans-56"/>
       </defs>
       <use xlink:href="#DejaVuSans-52"/>
       <use x="63.623047" xlink:href="#DejaVuSans-54"/>
       <use x="127.246094" xlink:href="#DejaVuSans-56"/>
       <use x="190.869141" xlink:href="#DejaVuSans-48"/>
       <use x="254.492188" xlink:href="#DejaVuSans-48"/>
       <use x="318.115234" xlink:href="#DejaVuSans-48"/>
      </g>
     </g>
    </g>
    <g id="ytick_3">
     <g id="line2d_12">
      <g>
       <use style="stroke:#000000;stroke-width:0.8;" x="108" xlink:href="#m2dc7ecd19e" y="305.2546"/>
      </g>
     </g>
     <g id="text_13">
      <!-- 469000 -->
      <g transform="translate(62.825 309.053819)scale(0.1 -0.1)">
       <defs>
        <path d="M 10.984375 1.515625 
L 10.984375 10.5 
Q 14.703125 8.734375 18.5 7.8125 
Q 22.3125 6.890625 25.984375 6.890625 
Q 35.75 6.890625 40.890625 13.453125 
Q 46.046875 20.015625 46.78125 33.40625 
Q 43.953125 29.203125 39.59375 26.953125 
Q 35.25 24.703125 29.984375 24.703125 
Q 19.046875 24.703125 12.671875 31.3125 
Q 6.296875 37.9375 6.296875 49.421875 
Q 6.296875 60.640625 12.9375 67.421875 
Q 19.578125 74.21875 30.609375 74.21875 
Q 43.265625 74.21875 49.921875 64.515625 
Q 56.59375 54.828125 56.59375 36.375 
Q 56.59375 19.140625 48.40625 8.859375 
Q 40.234375 -1.421875 26.421875 -1.421875 
Q 22.703125 -1.421875 18.890625 -0.6875 
Q 15.09375 0.046875 10.984375 1.515625 
z
M 30.609375 32.421875 
Q 37.25 32.421875 41.125 36.953125 
Q 45.015625 41.5 45.015625 49.421875 
Q 45.015625 57.28125 41.125 61.84375 
Q 37.25 66.40625 30.609375 66.40625 
Q 23.96875 66.40625 20.09375 61.84375 
Q 16.21875 57.28125 16.21875 49.421875 
Q 16.21875 41.5 20.09375 36.953125 
Q 23.96875 32.421875 30.609375 32.421875 
z
" id="DejaVuSans-57"/>
       </defs>
       <use xlink:href="#DejaVuSans-52"/>
       <use x="63.623047" xlink:href="#DejaVuSans-54"/>
       <use x="127.246094" xlink:href="#DejaVuSans-57"/>
       <use x="190.869141" xlink:href="#DejaVuSans-48"/>
       <use x="254.492188" xlink:href="#DejaVuSans-48"/>
       <use x="318.115234" xlink:href="#DejaVuSans-48"/>
      </g>
     </g>
    </g>
    <g id="ytick_4">
     <g id="line2d_13">
      <g>
       <use style="stroke:#000000;stroke-width:0.8;" x="108" xlink:href="#m2dc7ecd19e" y="275.204666"/>
      </g>
     </g>
     <g id="text_14">
      <!-- 470000 -->
      <g transform="translate(62.825 279.003885)scale(0.1 -0.1)">
       <use xlink:href="#DejaVuSans-52"/>
       <use x="63.623047" xlink:href="#DejaVuSans-55"/>
       <use x="127.246094" xlink:href="#DejaVuSans-48"/>
       <use x="190.869141" xlink:href="#DejaVuSans-48"/>
       <use x="254.492188" xlink:href="#DejaVuSans-48"/>
       <use x="318.115234" xlink:href="#DejaVuSans-48"/>
      </g>
     </g>
    </g>
   </g>
   <g id="patch_3">
    <path d="M 108 385.839721 
L 108 268.640279 
" style="fill:none;stroke:#000000;stroke-linecap:square;stroke-linejoin:miter;stroke-width:0.8;"/>
   </g>
   <g id="patch_4">
    <path d="M 777.6 385.839721 
L 777.6 268.640279 
" style="fill:none;stroke:#000000;stroke-linecap:square;stroke-linejoin:miter;stroke-width:0.8;"/>
   </g>
   <g id="patch_5">
    <path d="M 108 385.839721 
L 777.6 385.839721 
" style="fill:none;stroke:#000000;stroke-linecap:square;stroke-linejoin:miter;stroke-width:0.8;"/>
   </g>
   <g id="patch_6">
    <path d="M 108 268.640279 
L 777.6 268.640279 
" style="fill:none;stroke:#000000;stroke-linecap:square;stroke-linejoin:miter;stroke-width:0.8;"/>
   </g>
  </g>
 </g>
 <defs>
  <clipPath id="p6c99d4c93d">
   <rect height="117.199443" width="669.6" x="108" y="268.640279"/>
  </clipPath>
 </defs>
</svg>
