<?xml version="1.0" encoding="utf-8" standalone="no"?>
<!DOCTYPE svg PUBLIC "-//W3C//DTD SVG 1.1//EN"
  "http://www.w3.org/Graphics/SVG/1.1/DTD/svg11.dtd">
<!-- Created with matplotlib (https://matplotlib.org/) -->
<svg height="345.6pt" version="1.1" viewBox="0 0 460.8 345.6" width="460.8pt" xmlns="http://www.w3.org/2000/svg" xmlns:xlink="http://www.w3.org/1999/xlink">
 <metadata>
  <rdf:RDF xmlns:cc="http://creativecommons.org/ns#" xmlns:dc="http://purl.org/dc/elements/1.1/" xmlns:rdf="http://www.w3.org/1999/02/22-rdf-syntax-ns#">
   <cc:Work>
    <dc:type rdf:resource="http://purl.org/dc/dcmitype/StillImage"/>
    <dc:date>2020-10-06T17:29:01.979408</dc:date>
    <dc:format>image/svg+xml</dc:format>
    <dc:creator>
     <cc:Agent>
      <dc:title>Matplotlib v3.3.2, https://matplotlib.org/</dc:title>
     </cc:Agent>
    </dc:creator>
   </cc:Work>
  </rdf:RDF>
 </metadata>
 <defs>
  <style type="text/css">*{stroke-linecap:butt;stroke-linejoin:round;}</style>
 </defs>
 <g id="figure_1">
  <g id="patch_1">
   <path d="M 0 345.6 
L 460.8 345.6 
L 460.8 0 
L 0 0 
z
" style="fill:#ffffff;"/>
  </g>
  <g id="axes_1">
   <g id="patch_2">
    <path d="M 57.6 205.489719 
L 414.72 205.489719 
L 414.72 143.566281 
L 57.6 143.566281 
z
" style="fill:#ffffff;"/>
   </g>
   <g id="PatchCollection_1">
    <path clip-path="url(#pfe757bff17)" d="M 398.487273 158.679752 
L 376.638219 161.709229 
L 376.025735 157.307966 
L 397.873512 154.277289 
L 398.487273 158.679752 
" style="fill:#1f77b4;"/>
    <path clip-path="url(#pfe757bff17)" d="M 336.863091 162.740453 
L 336.863323 162.740474 
L 336.863507 162.740464 
L 374.929522 157.460031 
L 375.542001 161.861226 
L 337.476901 167.139136 
L 337.476677 167.139191 
L 337.476465 167.139283 
L 337.476273 167.139411 
L 337.476105 167.13957 
L 337.475967 167.139755 
L 337.475863 167.139961 
L 337.475796 167.140182 
L 337.475767 167.140412 
L 337.475779 167.140642 
L 338.992328 178.015216 
L 338.992334 178.015443 
L 338.992355 178.015659 
L 338.99241 178.015877 
L 338.992502 178.016083 
L 338.992626 178.01627 
L 338.992781 178.016434 
L 338.992961 178.01657 
L 338.993208 178.016718 
L 339.110576 178.096022 
L 339.243952 179.052457 
L 339.161326 179.225935 
L 339.161231 179.226636 
L 339.903134 184.546653 
L 341.087473 193.039308 
L 341.172393 193.648232 
L 334.499926 193.812075 
L 333.387917 193.831432 
L 319.979075 194.064845 
L 319.022276 194.081502 
L 315.706902 194.421976 
L 313.469748 194.480331 
L 310.788684 194.57292 
L 306.910692 194.749743 
L 289.524888 195.350155 
L 288.548312 195.383882 
L 279.703668 195.689328 
L 278.640651 195.726038 
L 229.502278 197.42302 
L 227.966668 197.476056 
L 199.366428 198.463755 
L 198.776089 198.48414 
L 141.836221 200.45055 
L 119.874618 201.208987 
L 118.870381 201.240223 
L 115.011079 201.365118 
L 113.887623 201.401477 
L 110.023577 201.52653 
L 108.898941 201.574716 
L 105.03903 201.704389 
L 103.915621 201.742117 
L 100.061479 201.871596 
L 98.936295 201.914766 
L 95.081684 202.050145 
L 93.958334 202.089601 
L 90.105071 202.224933 
L 88.985282 202.258936 
L 85.144379 202.382614 
L 84.020918 202.418793 
L 80.352678 202.536911 
L 76.068517 202.67486 
L 76.063207 202.674986 
L 76.057912 202.675018 
L 76.052607 202.67496 
L 76.047307 202.674807 
L 76.042013 202.67456 
L 76.036723 202.674222 
L 76.031439 202.67379 
L 76.02616 202.673264 
L 76.020897 202.672658 
L 76.01564 202.671947 
L 76.010398 202.671151 
L 76.005171 202.670266 
L 75.999961 202.669276 
L 75.994772 202.668206 
L 75.989598 202.667047 
L 75.984451 202.665798 
L 75.979315 202.66445 
L 75.974215 202.663033 
L 75.969136 202.661505 
L 75.964079 202.659893 
L 75.959058 202.658202 
L 75.954064 202.656416 
L 75.949106 202.654551 
L 75.944181 202.652591 
L 75.939286 202.650547 
L 75.934429 202.648423 
L 75.929614 202.646211 
L 75.92482 202.643908 
L 75.920094 202.641543 
L 75.9154 202.639072 
L 75.910748 202.636533 
L 75.906144 202.633909 
L 75.901581 202.631206 
L 75.897066 202.628424 
L 75.892604 202.625564 
L 75.888195 202.622629 
L 75.883827 202.61961 
L 75.879523 202.616518 
L 75.875271 202.613351 
L 75.871073 202.610111 
L 75.866937 202.606803 
L 75.862849 202.60341 
L 75.858829 202.599969 
L 75.854867 202.59644 
L 75.850969 202.592846 
L 75.847134 202.58919 
L 75.843367 202.585465 
L 75.839658 202.581672 
L 75.836023 202.577821 
L 75.832451 202.57389 
L 75.828947 202.569918 
L 75.825513 202.565877 
L 75.822151 202.561773 
L 75.818864 202.557616 
L 75.81565 202.553396 
L 75.812505 202.549129 
L 75.809439 202.544808 
L 75.806447 202.540441 
L 75.803539 202.535999 
L 75.800699 202.531521 
L 75.797938 202.526996 
L 75.795257 202.522412 
L 75.792665 202.517797 
L 75.790147 202.513129 
L 75.787707 202.508414 
L 75.785358 202.503661 
L 75.783082 202.498878 
L 75.780901 202.494046 
L 75.778799 202.489178 
L 75.776786 202.484279 
L 75.774858 202.479337 
L 75.773014 202.474369 
L 75.77126 202.469363 
L 75.76959 202.464332 
L 75.768004 202.459269 
L 75.766518 202.454185 
L 75.765117 202.449074 
L 75.763805 202.443938 
L 75.762578 202.438774 
L 75.761445 202.433596 
L 75.760407 202.428395 
L 75.759454 202.42318 
L 75.75859 202.417953 
L 75.75782 202.412706 
L 75.757141 202.407448 
L 75.756556 202.402179 
L 75.756061 202.396895 
L 75.755666 202.391611 
L 75.755355 202.386321 
L 75.755134 202.381021 
L 75.755007 202.375647 
L 75.724572 200.276545 
L 75.761713 199.530094 
L 75.811873 198.784402 
L 75.900622 197.775247 
L 76.079875 195.815195 
L 76.240162 193.853489 
L 76.277893 193.363215 
L 76.318427 188.741168 
L 76.151764 184.519093 
L 75.917415 181.564421 
L 75.918195 181.563567 
L 75.919343 181.56225 
L 75.920471 181.560922 
L 75.921572 181.559563 
L 75.922657 181.558193 
L 75.923711 181.556802 
L 75.924743 181.555396 
L 75.92575 181.553968 
L 75.926729 181.552524 
L 75.927688 181.551065 
L 75.928621 181.54959 
L 75.929522 181.548094 
L 75.930401 181.546587 
L 75.931255 181.545064 
L 75.932082 181.543526 
L 75.932878 181.541977 
L 75.933652 181.540407 
L 75.934395 181.538831 
L 75.935111 181.53724 
L 75.935796 181.535633 
L 75.93646 181.534021 
L 75.937092 181.532393 
L 75.937693 181.530755 
L 75.938272 181.529106 
L 75.938815 181.527451 
L 75.939336 181.525781 
L 75.939826 181.524106 
L 75.940285 181.52242 
L 75.940711 181.520729 
L 75.941107 181.519037 
L 75.941481 181.517325 
L 75.941823 181.515613 
L 75.942129 181.513895 
L 75.942408 181.512167 
L 75.942661 181.510445 
L 75.942882 181.508711 
L 75.943066 181.506978 
L 75.943224 181.505239 
L 75.943356 181.503501 
L 75.943456 181.501757 
L 75.943525 181.500008 
L 75.943562 181.498264 
L 75.943567 181.496525 
L 75.943546 181.494771 
L 75.943488 181.493027 
L 75.943409 181.491288 
L 75.943288 181.489544 
L 75.943145 181.487806 
L 75.942972 181.486067 
L 75.942766 181.484339 
L 75.942534 181.482606 
L 75.942266 181.480883 
L 75.941965 181.47916 
L 75.941639 181.477448 
L 75.941291 181.475735 
L 75.940901 181.474034 
L 75.940485 181.472337 
L 75.940037 181.470651 
L 75.939563 181.468971 
L 75.939063 181.467295 
L 75.938525 181.465636 
L 75.937967 181.463987 
L 75.937377 181.462343 
L 75.936755 181.46071 
L 75.936107 181.459092 
L 75.935433 181.457475 
L 75.934732 181.455878 
L 75.934 181.454298 
L 75.933241 181.452728 
L 75.932456 181.451168 
L 75.931645 181.449619 
L 75.930802 181.448092 
L 75.929938 181.44658 
L 75.929042 181.445078 
L 75.928126 181.443592 
L 75.927183 181.442128 
L 75.926208 181.440674 
L 75.925217 181.439241 
L 75.924195 181.437823 
L 75.923147 181.436427 
L 75.922083 181.435047 
L 75.920987 181.433682 
L 75.91987 181.432344 
L 75.918732 181.431016 
L 75.917568 181.42972 
L 75.916383 181.42844 
L 75.915171 181.427186 
L 75.913943 181.425943 
L 75.912695 181.424721 
L 75.911425 181.423525 
L 75.910129 181.422345 
L 75.908817 181.421207 
L 75.90749 181.420079 
L 75.90613 181.418973 
L 75.904766 181.417887 
L 75.90337 181.416834 
L 75.901969 181.415801 
L 75.900541 181.4148 
L 75.899092 181.413815 
L 75.897633 181.412856 
L 75.89503 181.411233 
L 75.894393 181.411044 
L 75.892296 181.410959 
L 75.890215 181.410833 
L 75.888129 181.410675 
L 75.886043 181.410469 
L 75.883962 181.410243 
L 75.881891 181.409974 
L 75.879821 181.409669 
L 75.877761 181.409326 
L 75.875701 181.408947 
L 75.873652 181.408536 
L 75.871613 181.408083 
L 75.869569 181.407598 
L 75.867551 181.407082 
L 75.865538 181.406524 
L 75.863526 181.405933 
L 75.861534 181.405307 
L 75.859554 181.404643 
L 75.857578 181.403953 
L 75.855618 181.40322 
L 75.853669 181.402462 
L 75.851735 181.401661 
L 75.849818 181.400834 
L 75.847911 181.39997 
L 75.846025 181.399074 
L 75.844149 181.398136 
L 75.842295 181.397177 
L 75.840456 181.396187 
L 75.838633 181.395154 
L 75.836832 181.394095 
L 75.835046 181.393 
L 75.833275 181.391883 
L 75.831537 181.390739 
L 75.829804 181.389549 
L 75.828102 181.388342 
L 75.826421 181.387099 
L 75.824757 181.385824 
L 75.823123 181.384528 
L 75.821506 181.3832 
L 75.81991 181.381841 
L 75.818345 181.380466 
L 75.816802 181.379054 
L 75.815279 181.377616 
L 75.813783 181.376151 
L 75.812323 181.37466 
L 75.81088 181.373148 
L 75.809463 181.371604 
L 75.808077 181.37004 
L 75.806713 181.368454 
L 75.80538 181.366842 
L 75.804073 181.365208 
L 75.802804 181.363554 
L 75.801555 181.361868 
L 75.800338 181.360177 
L 75.799153 181.358459 
L 75.797994 181.356716 
L 75.796866 181.354945 
L 75.795771 181.353165 
L 75.794706 181.351368 
L 75.793674 181.34955 
L 75.792673 181.347706 
L 75.791703 181.345857 
L 75.790771 181.343997 
L 75.789865 181.342101 
L 75.788996 181.340199 
L 75.788158 181.338281 
L 75.787357 181.336348 
L 75.786583 181.334403 
L 75.78585 181.332454 
L 75.78515 181.330478 
L 75.784486 181.328497 
L 75.783848 181.326501 
L 75.783248 181.324499 
L 75.782695 181.322486 
L 75.782163 181.320452 
L 75.781673 181.318429 
L 75.78122 181.31639 
L 75.780798 181.31433 
L 75.780413 181.312281 
L 75.780066 181.310226 
L 75.779502 181.306322 
L 75.603726 180.152812 
L 75.41933 178.785868 
L 75.415769 178.770357 
L 75.412487 178.754862 
L 75.409489 178.739315 
L 75.406755 178.723715 
L 75.4043 178.708073 
L 75.402108 178.692383 
L 75.400201 178.676656 
L 75.398558 178.660909 
L 75.397193 178.645124 
L 75.396108 178.629329 
L 75.395297 178.613508 
L 75.394759 178.597676 
L 75.394501 178.581834 
L 75.394522 178.566012 
L 75.394817 178.55017 
L 75.395386 178.534343 
L 75.396234 178.518532 
L 75.397351 178.502732 
L 75.398753 178.486947 
L 75.400428 178.471205 
L 75.402372 178.455484 
L 75.40459 178.439805 
L 75.407092 178.424162 
L 75.409858 178.408567 
L 75.412893 178.39303 
L 75.419309 178.364096 
L 75.426722 178.335435 
L 75.433634 178.306642 
L 75.440045 178.277734 
L 75.445951 178.24872 
L 75.45134 178.219606 
L 75.456229 178.190408 
L 75.460607 178.16112 
L 75.464469 178.131764 
L 75.467825 178.102344 
L 75.470659 178.072872 
L 75.472988 178.043358 
L 75.474795 178.013807 
L 75.476086 177.984229 
L 75.476865 177.954625 
L 75.477123 177.925021 
L 75.476865 177.895407 
L 75.476091 177.865814 
L 75.4748 177.836231 
L 75.472993 177.80668 
L 75.47067 177.77716 
L 75.465433 177.726203 
L 75.239914 176.271228 
L 75.239862 176.271025 
L 75.239781 176.270833 
L 75.23967 176.270656 
L 75.239533 176.270497 
L 75.239374 176.270362 
L 75.239195 176.270254 
L 75.239002 176.270174 
L 75.233333 176.268604 
L 75.227754 176.26696 
L 75.222207 176.265211 
L 75.216691 176.263367 
L 75.211207 176.261428 
L 75.205754 176.2594 
L 75.200338 176.257266 
L 75.194965 176.255043 
L 75.189628 176.25273 
L 75.184333 176.250323 
L 75.179086 176.24782 
L 75.173886 176.245233 
L 75.168713 176.242546 
L 75.163602 176.23977 
L 75.15854 176.236909 
L 75.153524 176.233959 
L 75.148567 176.230919 
L 75.143652 176.2278 
L 75.138805 176.224597 
L 75.134011 176.221294 
L 75.129269 176.217922 
L 75.124591 176.214466 
L 75.119976 176.210931 
L 75.115419 176.207306 
L 75.110925 176.203613 
L 75.106816 176.200141 
L 75.106658 176.199977 
L 75.106494 176.19983 
L 75.106305 176.199677 
L 75.102143 176.195989 
L 75.09786 176.192059 
L 75.093634 176.18806 
L 75.089478 176.183982 
L 75.0854 176.179836 
L 75.081396 176.175616 
L 75.077461 176.171333 
L 75.073604 176.166976 
L 75.069827 176.162555 
L 75.066123 176.158072 
L 75.062504 176.15352 
L 75.058959 176.148905 
L 75.055492 176.144232 
L 75.05211 176.1395 
L 75.048817 176.134706 
L 75.045604 176.129859 
L 75.042469 176.124954 
L 75.039429 176.119996 
L 75.036474 176.114986 
L 75.033608 176.109928 
L 75.030826 176.104818 
L 75.028134 176.09965 
L 75.025542 176.09445 
L 75.023034 176.089202 
L 75.020616 176.083913 
L 75.018298 176.078581 
L 75.01607 176.073212 
L 75.013931 176.067796 
L 75.011892 176.062349 
L 75.009948 176.056864 
L 75.008099 176.051348 
L 75.006344 176.0458 
L 75.004685 176.040226 
L 75.003136 176.034626 
L 75.001671 176.028988 
L 75.000312 176.023335 
L 74.999053 176.017656 
L 74.997889 176.011966 
L 74.996788 176.006018 
L 74.797041 174.731305 
L 74.558877 172.919044 
L 74.420595 171.321828 
L 74.105599 167.712616 
L 73.998057 166.330541 
L 74.02108 166.200134 
L 74.021791 166.195013 
L 74.022581 166.189939 
L 74.023456 166.184881 
L 74.02442 166.179845 
L 74.025479 166.174818 
L 74.026622 166.169819 
L 74.027844 166.164835 
L 74.029161 166.159872 
L 74.030562 166.15493 
L 74.032053 166.150025 
L 74.033623 166.145141 
L 74.035283 166.140278 
L 74.037021 166.135447 
L 74.038855 166.130657 
L 74.040762 166.125895 
L 74.042753 166.121164 
L 74.044829 166.116469 
L 74.046989 166.111812 
L 74.049228 166.107186 
L 74.051546 166.102613 
L 74.053943 166.098066 
L 74.056414 166.093577 
L 74.058969 166.089125 
L 74.061603 166.084721 
L 74.064316 166.080359 
L 74.067098 166.076049 
L 74.069959 166.071787 
L 74.072893 166.067572 
L 74.075896 166.06341 
L 74.078973 166.059305 
L 74.082123 166.055254 
L 74.085347 166.051255 
L 74.088635 166.047314 
L 74.091991 166.043431 
L 74.095415 166.039612 
L 74.098903 166.035844 
L 74.102459 166.032146 
L 74.106067 166.028521 
L 74.109766 166.024928 
L 74.113512 166.021419 
L 74.11731 166.017973 
L 74.121177 166.014596 
L 74.125096 166.011288 
L 74.129079 166.008053 
L 74.13312 166.004886 
L 74.137203 166.001783 
L 74.141349 165.998748 
L 74.145548 165.995798 
L 74.149794 165.992916 
L 74.154093 165.990113 
L 74.158434 165.987379 
L 74.162833 165.984723 
L 74.167269 165.982147 
L 74.171752 165.97965 
L 74.176273 165.977226 
L 74.18084 165.974882 
L 74.18545 165.972621 
L 74.190097 165.970445 
L 74.19478 165.968338 
L 74.199495 165.96632 
L 74.204252 165.964386 
L 74.209041 165.962532 
L 74.213856 165.960767 
L 74.218703 165.959081 
L 74.223582 165.957484 
L 74.228487 165.955972 
L 74.233418 165.954539 
L 74.23837 165.953201 
L 74.243338 165.951952 
L 74.248348 165.950777 
L 74.253369 165.949697 
L 74.2584 165.948707 
L 74.263452 165.947801 
L 74.268515 165.946994 
L 74.273599 165.946262 
L 74.278693 165.945619 
L 74.283793 165.945077 
L 74.288903 165.944613 
L 74.294019 165.944239 
L 74.29915 165.943959 
L 74.304276 165.94377 
L 74.309407 165.943664 
L 74.314533 165.943648 
L 74.31967 165.943727 
L 74.324806 165.943896 
L 74.329933 165.944144 
L 74.335048 165.944491 
L 74.340158 165.944928 
L 74.345268 165.945445 
L 74.350368 165.946061 
L 74.355447 165.946762 
L 74.36052 165.947552 
L 74.365578 165.948427 
L 74.370614 165.949396 
L 74.37564 165.95045 
L 74.38064 165.951598 
L 74.389396 165.953811 
L 74.389616 165.953839 
L 74.389838 165.953831 
L 74.390055 165.953786 
L 74.390262 165.953705 
L 74.390453 165.953591 
L 74.390622 165.953448 
L 74.390765 165.953278 
L 74.390878 165.953087 
L 74.390958 165.95288 
L 74.391002 165.952662 
L 74.446667 165.145897 
L 74.446655 165.145667 
L 74.446603 165.145442 
L 74.446513 165.14523 
L 74.446388 165.145036 
L 74.446232 165.144867 
L 74.446049 165.144726 
L 74.445844 165.14462 
L 74.445624 165.14455 
L 74.445396 165.144519 
L 74.445166 165.144528 
L 74.440529 165.145102 
L 74.435899 165.145597 
L 74.431263 165.146019 
L 74.426616 165.14634 
L 74.421969 165.146598 
L 74.417312 165.146772 
L 74.41265 165.146862 
L 74.408003 165.146872 
L 74.403341 165.146799 
L 74.398689 165.146646 
L 74.394037 165.146409 
L 74.38939 165.146098 
L 74.384749 165.145698 
L 74.380118 165.145213 
L 74.375493 165.144665 
L 74.370878 165.144022 
L 74.366273 165.143301 
L 74.36169 165.142505 
L 74.357117 165.14162 
L 74.35256 165.140661 
L 74.348018 165.139623 
L 74.343498 165.138512 
L 74.338999 165.137316 
L 74.334521 165.136036 
L 74.330064 165.134682 
L 74.325634 165.133254 
L 74.319823 165.131252 
L 74.319543 165.131189 
L 74.312394 165.130725 
L 74.30534 165.130141 
L 74.298302 165.129435 
L 74.291269 165.128613 
L 74.284256 165.127665 
L 74.277255 165.12659 
L 74.27028 165.125399 
L 74.26332 165.124082 
L 74.256392 165.122649 
L 74.249486 165.12109 
L 74.242611 165.11942 
L 74.235762 165.117623 
L 74.22895 165.115706 
L 74.222164 165.113672 
L 74.215421 165.111517 
L 74.20872 165.109252 
L 74.202055 165.10686 
L 74.195433 165.104363 
L 74.188858 165.10175 
L 74.182326 165.09901 
L 74.17584 165.09617 
L 74.169413 165.093209 
L 74.163028 165.090138 
L 74.156711 165.086956 
L 74.150447 165.083668 
L 74.144236 165.08027 
L 74.138088 165.076761 
L 74.132003 165.073153 
L 74.125981 165.069428 
L 74.120018 165.065603 
L 74.114133 165.061678 
L 74.108312 165.057653 
L 74.102564 165.053517 
L 74.096895 165.049297 
L 74.091295 165.044956 
L 74.085763 165.04053 
L 74.080321 165.03601 
L 74.074953 165.031389 
L 74.069669 165.026679 
L 74.064464 165.02188 
L 74.059348 165.016991 
L 74.054317 165.012017 
L 74.049375 165.006949 
L 74.044518 165.001796 
L 74.039755 164.99656 
L 74.035088 164.991244 
L 74.03051 164.985849 
L 74.026021 164.980375 
L 74.021633 164.974811 
L 74.017344 164.969179 
L 74.013151 164.963474 
L 74.009062 164.957699 
L 74.005074 164.951851 
L 74.001192 164.945924 
L 73.997404 164.93995 
L 73.993726 164.933901 
L 73.990155 164.92779 
L 73.986693 164.921621 
L 73.983337 164.915388 
L 73.980092 164.909092 
L 73.976958 164.902749 
L 73.973934 164.896348 
L 73.971015 164.889894 
L 73.968217 164.883398 
L 73.965531 164.876849 
L 73.96296 164.870253 
L 73.960505 164.863614 
L 73.958166 164.856929 
L 73.955942 164.850206 
L 73.953835 164.843446 
L 73.951854 164.836655 
L 73.949984 164.829827 
L 73.948235 164.822968 
L 73.946607 164.816082 
L 73.9451 164.809164 
L 73.943709 164.802236 
L 73.942445 164.795261 
L 73.941302 164.788269 
L 73.94028 164.781262 
L 73.939379 164.774245 
L 73.938604 164.767211 
L 73.937951 164.760162 
L 73.937419 164.753102 
L 73.937013 164.746042 
L 73.936587 164.733134 
L 73.836705 163.343156 
L 73.836094 163.336649 
L 73.835599 163.330163 
L 73.835214 163.323673 
L 73.83494 163.317161 
L 73.834782 163.310659 
L 73.834735 163.304153 
L 73.834809 163.297646 
L 73.834993 163.291134 
L 73.835288 163.284633 
L 73.835694 163.278142 
L 73.836215 163.271646 
L 73.836858 163.265181 
L 73.837601 163.258712 
L 73.83847 163.252268 
L 73.839439 163.24583 
L 73.840525 163.239408 
L 73.841726 163.233022 
L 73.844328 163.22082 
L 73.876707 163.143994 
L 73.90779 163.066499 
L 73.937503 162.988477 
L 73.967237 162.906003 
L 73.96729 162.905819 
L 73.971215 162.886821 
L 73.974808 162.867743 
L 73.978069 162.848603 
L 73.980998 162.829415 
L 73.983585 162.810174 
L 73.985845 162.790891 
L 73.987757 162.771577 
L 73.989338 162.75222 
L 73.990586 162.732848 
L 73.991487 162.713454 
L 73.992051 162.69405 
L 73.992277 162.674641 
L 73.992167 162.655221 
L 73.991719 162.635812 
L 73.990365 162.605971 
L 73.839961 160.997433 
L 73.833417 160.927431 
L 73.83318 160.924659 
L 73.833001 160.921883 
L 73.832859 160.919106 
L 73.832769 160.916335 
L 73.832727 160.913537 
L 73.832733 160.910766 
L 73.83279 160.90799 
L 73.832896 160.905218 
L 73.833054 160.902442 
L 73.833249 160.899665 
L 73.833502 160.896905 
L 73.833802 160.894133 
L 73.834144 160.891383 
L 73.83454 160.888628 
L 73.834987 160.885883 
L 73.835472 160.883143 
L 73.836009 160.880419 
L 73.836594 160.877701 
L 73.837232 160.874993 
L 73.837911 160.872301 
L 73.838638 160.869619 
L 73.839413 160.866953 
L 73.840229 160.864298 
L 73.841093 160.861653 
L 73.84201 160.859029 
L 73.842964 160.856416 
L 73.84397 160.853829 
L 73.845018 160.851258 
L 73.846109 160.848698 
L 73.847247 160.846163 
L 73.848427 160.843645 
L 73.849654 160.841153 
L 73.850919 160.838682 
L 73.85223 160.836237 
L 73.85359 160.833803 
L 73.854986 160.831396 
L 73.856419 160.829019 
L 73.857899 160.82667 
L 73.859422 160.824341 
L 73.860981 160.822033 
L 73.862583 160.819768 
L 73.864221 160.817523 
L 73.865902 160.815311 
L 73.867619 160.81313 
L 73.869373 160.810975 
L 73.871165 160.808841 
L 73.872993 160.806755 
L 73.874858 160.804695 
L 73.87676 160.802661 
L 73.878704 160.800659 
L 73.880663 160.798704 
L 73.882671 160.796792 
L 73.884715 160.794895 
L 73.88678 160.793035 
L 73.888887 160.791223 
L 73.891016 160.789442 
L 73.893181 160.787698 
L 73.895372 160.785996 
L 73.897601 160.784326 
L 73.899856 160.782698 
L 73.902132 160.781107 
L 73.904434 160.779569 
L 73.906778 160.778051 
L 73.909138 160.776592 
L 73.911525 160.775164 
L 73.913938 160.773784 
L 73.916372 160.77244 
L 73.918827 160.771139 
L 73.921308 160.769885 
L 73.923805 160.768673 
L 73.926334 160.767509 
L 73.928873 160.766387 
L 73.931434 160.765306 
L 73.934015 160.764263 
L 73.936607 160.763283 
L 73.93922 160.76234 
L 73.941854 160.761445 
L 73.944499 160.760586 
L 73.94716 160.759785 
L 73.949831 160.759031 
L 73.952533 160.75832 
L 73.95522 160.757651 
L 73.957928 160.757035 
L 73.960646 160.756466 
L 73.963381 160.755933 
L 73.966115 160.755465 
L 73.968865 160.755038 
L 73.97162 160.754669 
L 73.974381 160.754326 
L 73.977141 160.754047 
L 73.979907 160.75381 
L 73.982684 160.75362 
L 73.986219 160.753457 
L 87.895804 160.250258 
L 88.561319 160.226174 
L 107.693289 159.534043 
L 108.555332 159.50285 
L 142.431748 158.277125 
L 143.392993 158.242334 
L 163.199453 157.525638 
L 163.411464 157.517969 
L 172.531044 157.187978 
L 173.149559 157.165591 
L 197.163862 156.296633 
L 197.164125 156.296633 
L 197.164325 156.296623 
L 197.164552 156.296596 
L 198.338888 156.254125 
L 254.790927 154.211413 
L 256.037236 154.166322 
L 272.400625 153.574205 
L 273.12802 153.547891 
L 282.204428 153.219461 
L 283.331395 153.177228 
L 285.705028 153.096173 
L 287.195371 152.961028 
L 287.209337 152.959637 
L 287.233941 152.956591 
L 317.230179 148.768273 
L 318.062059 148.654804 
L 334.339185 146.38328 
L 334.343336 146.382737 
L 334.347482 146.382274 
L 334.35165 146.381873 
L 334.355817 146.381546 
L 334.35999 146.381299 
L 334.364168 146.381119 
L 334.368346 146.381014 
L 334.372524 146.380982 
L 334.376707 146.381024 
L 334.38089 146.381135 
L 334.385068 146.381314 
L 334.389236 146.381577 
L 334.393403 146.381914 
L 334.39757 146.382315 
L 334.401722 146.382794 
L 334.405858 146.383347 
L 334.409999 146.383964 
L 334.414124 146.384659 
L 334.418239 146.385428 
L 334.422327 146.38626 
L 334.42641 146.387172 
L 334.430467 146.388157 
L 334.434519 146.3892 
L 334.438544 146.390322 
L 334.442553 146.391513 
L 334.446542 146.392772 
L 334.450498 146.39411 
L 334.454444 146.395506 
L 334.458359 146.396976 
L 334.462247 146.398509 
L 334.466109 146.400116 
L 334.469939 146.401786 
L 334.473743 146.403519 
L 334.47751 146.405326 
L 334.481256 146.407196 
L 334.48496 146.409125 
L 334.488632 146.411127 
L 334.492267 146.413192 
L 334.495866 146.41531 
L 334.499427 146.417501 
L 334.502952 146.419761 
L 334.506434 146.422058 
L 334.50988 146.424434 
L 334.513283 146.426863 
L 334.516634 146.429355 
L 334.519953 146.43191 
L 334.52322 146.434502 
L 334.52645 146.437173 
L 334.529626 146.439887 
L 334.532751 146.442658 
L 334.535833 146.445487 
L 334.538862 146.448369 
L 334.541834 146.451303 
L 334.544768 146.45429 
L 334.54764 146.457325 
L 334.550458 146.460407 
L 334.553235 146.463542 
L 334.555943 146.466724 
L 334.558598 146.469954 
L 334.561201 146.473225 
L 334.56374 146.476544 
L 334.566227 146.479911 
L 334.568645 146.483309 
L 334.571006 146.486765 
L 334.573313 146.490253 
L 334.575558 146.493777 
L 334.577739 146.497349 
L 334.579857 146.500953 
L 334.581912 146.504594 
L 334.583903 146.508266 
L 334.585837 146.511985 
L 334.587697 146.515721 
L 334.589488 146.519498 
L 334.591221 146.523307 
L 334.592881 146.527137 
L 334.594477 146.531004 
L 334.596005 146.534893 
L 334.59747 146.538818 
L 334.598861 146.542753 
L 334.600183 146.54672 
L 334.601432 146.550709 
L 334.602617 146.554718 
L 334.603734 146.558743 
L 334.604772 146.562795 
L 334.605747 146.566862 
L 334.606648 146.570945 
L 334.607475 146.575033 
L 334.608234 146.579153 
L 334.608918 146.583273 
L 334.60954 146.587435 
L 336.862 162.739342 
L 336.862048 162.739544 
L 336.862126 162.739736 
L 336.862233 162.739914 
L 336.862366 162.740073 
L 336.862523 162.74021 
L 336.862699 162.74032 
L 336.86289 162.740402 
L 336.863091 162.740453 
" style="fill:#1f77b4;"/>
   </g>
   <g id="matplotlib.axis_1">
    <g id="xtick_1">
     <g id="line2d_1">
      <defs>
       <path d="M 0 0 
L 0 3.5 
" id="mbbd927513e" style="stroke:#000000;stroke-width:0.8;"/>
      </defs>
      <g>
       <use style="stroke:#000000;stroke-width:0.8;" x="87.686999" xlink:href="#mbbd927513e" y="205.489719"/>
      </g>
     </g>
     <g id="text_1">
      <!-- 1.4200 -->
      <g transform="translate(70.191687 220.088157)scale(0.1 -0.1)">
       <defs>
        <path d="M 12.40625 8.296875 
L 28.515625 8.296875 
L 28.515625 63.921875 
L 10.984375 60.40625 
L 10.984375 69.390625 
L 28.421875 72.90625 
L 38.28125 72.90625 
L 38.28125 8.296875 
L 54.390625 8.296875 
L 54.390625 0 
L 12.40625 0 
z
" id="DejaVuSans-49"/>
        <path d="M 10.6875 12.40625 
L 21 12.40625 
L 21 0 
L 10.6875 0 
z
" id="DejaVuSans-46"/>
        <path d="M 37.796875 64.3125 
L 12.890625 25.390625 
L 37.796875 25.390625 
z
M 35.203125 72.90625 
L 47.609375 72.90625 
L 47.609375 25.390625 
L 58.015625 25.390625 
L 58.015625 17.1875 
L 47.609375 17.1875 
L 47.609375 0 
L 37.796875 0 
L 37.796875 17.1875 
L 4.890625 17.1875 
L 4.890625 26.703125 
z
" id="DejaVuSans-52"/>
        <path d="M 19.1875 8.296875 
L 53.609375 8.296875 
L 53.609375 0 
L 7.328125 0 
L 7.328125 8.296875 
Q 12.9375 14.109375 22.625 23.890625 
Q 32.328125 33.6875 34.8125 36.53125 
Q 39.546875 41.84375 41.421875 45.53125 
Q 43.3125 49.21875 43.3125 52.78125 
Q 43.3125 58.59375 39.234375 62.25 
Q 35.15625 65.921875 28.609375 65.921875 
Q 23.96875 65.921875 18.8125 64.3125 
Q 13.671875 62.703125 7.8125 59.421875 
L 7.8125 69.390625 
Q 13.765625 71.78125 18.9375 73 
Q 24.125 74.21875 28.421875 74.21875 
Q 39.75 74.21875 46.484375 68.546875 
Q 53.21875 62.890625 53.21875 53.421875 
Q 53.21875 48.921875 51.53125 44.890625 
Q 49.859375 40.875 45.40625 35.40625 
Q 44.1875 33.984375 37.640625 27.21875 
Q 31.109375 20.453125 19.1875 8.296875 
z
" id="DejaVuSans-50"/>
        <path d="M 31.78125 66.40625 
Q 24.171875 66.40625 20.328125 58.90625 
Q 16.5 51.421875 16.5 36.375 
Q 16.5 21.390625 20.328125 13.890625 
Q 24.171875 6.390625 31.78125 6.390625 
Q 39.453125 6.390625 43.28125 13.890625 
Q 47.125 21.390625 47.125 36.375 
Q 47.125 51.421875 43.28125 58.90625 
Q 39.453125 66.40625 31.78125 66.40625 
z
M 31.78125 74.21875 
Q 44.046875 74.21875 50.515625 64.515625 
Q 56.984375 54.828125 56.984375 36.375 
Q 56.984375 17.96875 50.515625 8.265625 
Q 44.046875 -1.421875 31.78125 -1.421875 
Q 19.53125 -1.421875 13.0625 8.265625 
Q 6.59375 17.96875 6.59375 36.375 
Q 6.59375 54.828125 13.0625 64.515625 
Q 19.53125 74.21875 31.78125 74.21875 
z
" id="DejaVuSans-48"/>
       </defs>
       <use xlink:href="#DejaVuSans-49"/>
       <use x="63.623047" xlink:href="#DejaVuSans-46"/>
       <use x="95.410156" xlink:href="#DejaVuSans-52"/>
       <use x="159.033203" xlink:href="#DejaVuSans-50"/>
       <use x="222.65625" xlink:href="#DejaVuSans-48"/>
       <use x="286.279297" xlink:href="#DejaVuSans-48"/>
      </g>
     </g>
    </g>
    <g id="xtick_2">
     <g id="line2d_2">
      <g>
       <use style="stroke:#000000;stroke-width:0.8;" x="127.832819" xlink:href="#mbbd927513e" y="205.489719"/>
      </g>
     </g>
     <g id="text_2">
      <!-- 1.4225 -->
      <g transform="translate(110.337506 220.088157)scale(0.1 -0.1)">
       <defs>
        <path d="M 10.796875 72.90625 
L 49.515625 72.90625 
L 49.515625 64.59375 
L 19.828125 64.59375 
L 19.828125 46.734375 
Q 21.96875 47.46875 24.109375 47.828125 
Q 26.265625 48.1875 28.421875 48.1875 
Q 40.625 48.1875 47.75 41.5 
Q 54.890625 34.8125 54.890625 23.390625 
Q 54.890625 11.625 47.5625 5.09375 
Q 40.234375 -1.421875 26.90625 -1.421875 
Q 22.3125 -1.421875 17.546875 -0.640625 
Q 12.796875 0.140625 7.71875 1.703125 
L 7.71875 11.625 
Q 12.109375 9.234375 16.796875 8.0625 
Q 21.484375 6.890625 26.703125 6.890625 
Q 35.15625 6.890625 40.078125 11.328125 
Q 45.015625 15.765625 45.015625 23.390625 
Q 45.015625 31 40.078125 35.4375 
Q 35.15625 39.890625 26.703125 39.890625 
Q 22.75 39.890625 18.8125 39.015625 
Q 14.890625 38.140625 10.796875 36.28125 
z
" id="DejaVuSans-53"/>
       </defs>
       <use xlink:href="#DejaVuSans-49"/>
       <use x="63.623047" xlink:href="#DejaVuSans-46"/>
       <use x="95.410156" xlink:href="#DejaVuSans-52"/>
       <use x="159.033203" xlink:href="#DejaVuSans-50"/>
       <use x="222.65625" xlink:href="#DejaVuSans-50"/>
       <use x="286.279297" xlink:href="#DejaVuSans-53"/>
      </g>
     </g>
    </g>
    <g id="xtick_3">
     <g id="line2d_3">
      <g>
       <use style="stroke:#000000;stroke-width:0.8;" x="167.978638" xlink:href="#mbbd927513e" y="205.489719"/>
      </g>
     </g>
     <g id="text_3">
      <!-- 1.4250 -->
      <g transform="translate(150.483326 220.088157)scale(0.1 -0.1)">
       <use xlink:href="#DejaVuSans-49"/>
       <use x="63.623047" xlink:href="#DejaVuSans-46"/>
       <use x="95.410156" xlink:href="#DejaVuSans-52"/>
       <use x="159.033203" xlink:href="#DejaVuSans-50"/>
       <use x="222.65625" xlink:href="#DejaVuSans-53"/>
       <use x="286.279297" xlink:href="#DejaVuSans-48"/>
      </g>
     </g>
    </g>
    <g id="xtick_4">
     <g id="line2d_4">
      <g>
       <use style="stroke:#000000;stroke-width:0.8;" x="208.124457" xlink:href="#mbbd927513e" y="205.489719"/>
      </g>
     </g>
     <g id="text_4">
      <!-- 1.4275 -->
      <g transform="translate(190.629145 220.088157)scale(0.1 -0.1)">
       <defs>
        <path d="M 8.203125 72.90625 
L 55.078125 72.90625 
L 55.078125 68.703125 
L 28.609375 0 
L 18.3125 0 
L 43.21875 64.59375 
L 8.203125 64.59375 
z
" id="DejaVuSans-55"/>
       </defs>
       <use xlink:href="#DejaVuSans-49"/>
       <use x="63.623047" xlink:href="#DejaVuSans-46"/>
       <use x="95.410156" xlink:href="#DejaVuSans-52"/>
       <use x="159.033203" xlink:href="#DejaVuSans-50"/>
       <use x="222.65625" xlink:href="#DejaVuSans-55"/>
       <use x="286.279297" xlink:href="#DejaVuSans-53"/>
      </g>
     </g>
    </g>
    <g id="xtick_5">
     <g id="line2d_5">
      <g>
       <use style="stroke:#000000;stroke-width:0.8;" x="248.270277" xlink:href="#mbbd927513e" y="205.489719"/>
      </g>
     </g>
     <g id="text_5">
      <!-- 1.4300 -->
      <g transform="translate(230.774964 220.088157)scale(0.1 -0.1)">
       <defs>
        <path d="M 40.578125 39.3125 
Q 47.65625 37.796875 51.625 33 
Q 55.609375 28.21875 55.609375 21.1875 
Q 55.609375 10.40625 48.1875 4.484375 
Q 40.765625 -1.421875 27.09375 -1.421875 
Q 22.515625 -1.421875 17.65625 -0.515625 
Q 12.796875 0.390625 7.625 2.203125 
L 7.625 11.71875 
Q 11.71875 9.328125 16.59375 8.109375 
Q 21.484375 6.890625 26.8125 6.890625 
Q 36.078125 6.890625 40.9375 10.546875 
Q 45.796875 14.203125 45.796875 21.1875 
Q 45.796875 27.640625 41.28125 31.265625 
Q 36.765625 34.90625 28.71875 34.90625 
L 20.21875 34.90625 
L 20.21875 43.015625 
L 29.109375 43.015625 
Q 36.375 43.015625 40.234375 45.921875 
Q 44.09375 48.828125 44.09375 54.296875 
Q 44.09375 59.90625 40.109375 62.90625 
Q 36.140625 65.921875 28.71875 65.921875 
Q 24.65625 65.921875 20.015625 65.03125 
Q 15.375 64.15625 9.8125 62.3125 
L 9.8125 71.09375 
Q 15.4375 72.65625 20.34375 73.4375 
Q 25.25 74.21875 29.59375 74.21875 
Q 40.828125 74.21875 47.359375 69.109375 
Q 53.90625 64.015625 53.90625 55.328125 
Q 53.90625 49.265625 50.4375 45.09375 
Q 46.96875 40.921875 40.578125 39.3125 
z
" id="DejaVuSans-51"/>
       </defs>
       <use xlink:href="#DejaVuSans-49"/>
       <use x="63.623047" xlink:href="#DejaVuSans-46"/>
       <use x="95.410156" xlink:href="#DejaVuSans-52"/>
       <use x="159.033203" xlink:href="#DejaVuSans-51"/>
       <use x="222.65625" xlink:href="#DejaVuSans-48"/>
       <use x="286.279297" xlink:href="#DejaVuSans-48"/>
      </g>
     </g>
    </g>
    <g id="xtick_6">
     <g id="line2d_6">
      <g>
       <use style="stroke:#000000;stroke-width:0.8;" x="288.416096" xlink:href="#mbbd927513e" y="205.489719"/>
      </g>
     </g>
     <g id="text_6">
      <!-- 1.4325 -->
      <g transform="translate(270.920784 220.088157)scale(0.1 -0.1)">
       <use xlink:href="#DejaVuSans-49"/>
       <use x="63.623047" xlink:href="#DejaVuSans-46"/>
       <use x="95.410156" xlink:href="#DejaVuSans-52"/>
       <use x="159.033203" xlink:href="#DejaVuSans-51"/>
       <use x="222.65625" xlink:href="#DejaVuSans-50"/>
       <use x="286.279297" xlink:href="#DejaVuSans-53"/>
      </g>
     </g>
    </g>
    <g id="xtick_7">
     <g id="line2d_7">
      <g>
       <use style="stroke:#000000;stroke-width:0.8;" x="328.561916" xlink:href="#mbbd927513e" y="205.489719"/>
      </g>
     </g>
     <g id="text_7">
      <!-- 1.4350 -->
      <g transform="translate(311.066603 220.088157)scale(0.1 -0.1)">
       <use xlink:href="#DejaVuSans-49"/>
       <use x="63.623047" xlink:href="#DejaVuSans-46"/>
       <use x="95.410156" xlink:href="#DejaVuSans-52"/>
       <use x="159.033203" xlink:href="#DejaVuSans-51"/>
       <use x="222.65625" xlink:href="#DejaVuSans-53"/>
       <use x="286.279297" xlink:href="#DejaVuSans-48"/>
      </g>
     </g>
    </g>
    <g id="xtick_8">
     <g id="line2d_8">
      <g>
       <use style="stroke:#000000;stroke-width:0.8;" x="368.707735" xlink:href="#mbbd927513e" y="205.489719"/>
      </g>
     </g>
     <g id="text_8">
      <!-- 1.4375 -->
      <g transform="translate(351.212423 220.088157)scale(0.1 -0.1)">
       <use xlink:href="#DejaVuSans-49"/>
       <use x="63.623047" xlink:href="#DejaVuSans-46"/>
       <use x="95.410156" xlink:href="#DejaVuSans-52"/>
       <use x="159.033203" xlink:href="#DejaVuSans-51"/>
       <use x="222.65625" xlink:href="#DejaVuSans-55"/>
       <use x="286.279297" xlink:href="#DejaVuSans-53"/>
      </g>
     </g>
    </g>
    <g id="xtick_9">
     <g id="line2d_9">
      <g>
       <use style="stroke:#000000;stroke-width:0.8;" x="408.853555" xlink:href="#mbbd927513e" y="205.489719"/>
      </g>
     </g>
     <g id="text_9">
      <!-- 1.4400 -->
      <g transform="translate(391.358242 220.088157)scale(0.1 -0.1)">
       <use xlink:href="#DejaVuSans-49"/>
       <use x="63.623047" xlink:href="#DejaVuSans-46"/>
       <use x="95.410156" xlink:href="#DejaVuSans-52"/>
       <use x="159.033203" xlink:href="#DejaVuSans-52"/>
       <use x="222.65625" xlink:href="#DejaVuSans-48"/>
       <use x="286.279297" xlink:href="#DejaVuSans-48"/>
      </g>
     </g>
    </g>
    <g id="text_10">
     <!-- 1e6 -->
     <g transform="translate(395.841875 232.766282)scale(0.1 -0.1)">
      <defs>
       <path d="M 56.203125 29.59375 
L 56.203125 25.203125 
L 14.890625 25.203125 
Q 15.484375 15.921875 20.484375 11.0625 
Q 25.484375 6.203125 34.421875 6.203125 
Q 39.59375 6.203125 44.453125 7.46875 
Q 49.3125 8.734375 54.109375 11.28125 
L 54.109375 2.78125 
Q 49.265625 0.734375 44.1875 -0.34375 
Q 39.109375 -1.421875 33.890625 -1.421875 
Q 20.796875 -1.421875 13.15625 6.1875 
Q 5.515625 13.8125 5.515625 26.8125 
Q 5.515625 40.234375 12.765625 48.109375 
Q 20.015625 56 32.328125 56 
Q 43.359375 56 49.78125 48.890625 
Q 56.203125 41.796875 56.203125 29.59375 
z
M 47.21875 32.234375 
Q 47.125 39.59375 43.09375 43.984375 
Q 39.0625 48.390625 32.421875 48.390625 
Q 24.90625 48.390625 20.390625 44.140625 
Q 15.875 39.890625 15.1875 32.171875 
z
" id="DejaVuSans-101"/>
       <path d="M 33.015625 40.375 
Q 26.375 40.375 22.484375 35.828125 
Q 18.609375 31.296875 18.609375 23.390625 
Q 18.609375 15.53125 22.484375 10.953125 
Q 26.375 6.390625 33.015625 6.390625 
Q 39.65625 6.390625 43.53125 10.953125 
Q 47.40625 15.53125 47.40625 23.390625 
Q 47.40625 31.296875 43.53125 35.828125 
Q 39.65625 40.375 33.015625 40.375 
z
M 52.59375 71.296875 
L 52.59375 62.3125 
Q 48.875 64.0625 45.09375 64.984375 
Q 41.3125 65.921875 37.59375 65.921875 
Q 27.828125 65.921875 22.671875 59.328125 
Q 17.53125 52.734375 16.796875 39.40625 
Q 19.671875 43.65625 24.015625 45.921875 
Q 28.375 48.1875 33.59375 48.1875 
Q 44.578125 48.1875 50.953125 41.515625 
Q 57.328125 34.859375 57.328125 23.390625 
Q 57.328125 12.15625 50.6875 5.359375 
Q 44.046875 -1.421875 33.015625 -1.421875 
Q 20.359375 -1.421875 13.671875 8.265625 
Q 6.984375 17.96875 6.984375 36.375 
Q 6.984375 53.65625 15.1875 63.9375 
Q 23.390625 74.21875 37.203125 74.21875 
Q 40.921875 74.21875 44.703125 73.484375 
Q 48.484375 72.75 52.59375 71.296875 
z
" id="DejaVuSans-54"/>
      </defs>
      <use xlink:href="#DejaVuSans-49"/>
      <use x="63.623047" xlink:href="#DejaVuSans-101"/>
      <use x="125.146484" xlink:href="#DejaVuSans-54"/>
     </g>
    </g>
   </g>
   <g id="matplotlib.axis_2">
    <g id="ytick_1">
     <g id="line2d_10">
      <defs>
       <path d="M 0 0 
L -3.5 0 
" id="m57120e7ac8" style="stroke:#000000;stroke-width:0.8;"/>
      </defs>
      <g>
       <use style="stroke:#000000;stroke-width:0.8;" x="57.6" xlink:href="#m57120e7ac8" y="178.837593"/>
      </g>
     </g>
     <g id="text_11">
      <!-- 468000 -->
      <g transform="translate(12.425 182.636812)scale(0.1 -0.1)">
       <defs>
        <path d="M 31.78125 34.625 
Q 24.75 34.625 20.71875 30.859375 
Q 16.703125 27.09375 16.703125 20.515625 
Q 16.703125 13.921875 20.71875 10.15625 
Q 24.75 6.390625 31.78125 6.390625 
Q 38.8125 6.390625 42.859375 10.171875 
Q 46.921875 13.96875 46.921875 20.515625 
Q 46.921875 27.09375 42.890625 30.859375 
Q 38.875 34.625 31.78125 34.625 
z
M 21.921875 38.8125 
Q 15.578125 40.375 12.03125 44.71875 
Q 8.5 49.078125 8.5 55.328125 
Q 8.5 64.0625 14.71875 69.140625 
Q 20.953125 74.21875 31.78125 74.21875 
Q 42.671875 74.21875 48.875 69.140625 
Q 55.078125 64.0625 55.078125 55.328125 
Q 55.078125 49.078125 51.53125 44.71875 
Q 48 40.375 41.703125 38.8125 
Q 48.828125 37.15625 52.796875 32.3125 
Q 56.78125 27.484375 56.78125 20.515625 
Q 56.78125 9.90625 50.3125 4.234375 
Q 43.84375 -1.421875 31.78125 -1.421875 
Q 19.734375 -1.421875 13.25 4.234375 
Q 6.78125 9.90625 6.78125 20.515625 
Q 6.78125 27.484375 10.78125 32.3125 
Q 14.796875 37.15625 21.921875 38.8125 
z
M 18.3125 54.390625 
Q 18.3125 48.734375 21.84375 45.5625 
Q 25.390625 42.390625 31.78125 42.390625 
Q 38.140625 42.390625 41.71875 45.5625 
Q 45.3125 48.734375 45.3125 54.390625 
Q 45.3125 60.0625 41.71875 63.234375 
Q 38.140625 66.40625 31.78125 66.40625 
Q 25.390625 66.40625 21.84375 63.234375 
Q 18.3125 60.0625 18.3125 54.390625 
z
" id="DejaVuSans-56"/>
       </defs>
       <use xlink:href="#DejaVuSans-52"/>
       <use x="63.623047" xlink:href="#DejaVuSans-54"/>
       <use x="127.246094" xlink:href="#DejaVuSans-56"/>
       <use x="190.869141" xlink:href="#DejaVuSans-48"/>
       <use x="254.492188" xlink:href="#DejaVuSans-48"/>
       <use x="318.115234" xlink:href="#DejaVuSans-48"/>
      </g>
     </g>
    </g>
    <g id="ytick_2">
     <g id="line2d_11">
      <g>
       <use style="stroke:#000000;stroke-width:0.8;" x="57.6" xlink:href="#m57120e7ac8" y="146.720938"/>
      </g>
     </g>
     <g id="text_12">
      <!-- 470000 -->
      <g transform="translate(12.425 150.520157)scale(0.1 -0.1)">
       <use xlink:href="#DejaVuSans-52"/>
       <use x="63.623047" xlink:href="#DejaVuSans-55"/>
       <use x="127.246094" xlink:href="#DejaVuSans-48"/>
       <use x="190.869141" xlink:href="#DejaVuSans-48"/>
       <use x="254.492188" xlink:href="#DejaVuSans-48"/>
       <use x="318.115234" xlink:href="#DejaVuSans-48"/>
      </g>
     </g>
    </g>
   </g>
   <g id="patch_3">
    <path d="M 57.6 205.489719 
L 57.6 143.566281 
" style="fill:none;stroke:#000000;stroke-linecap:square;stroke-linejoin:miter;stroke-width:0.8;"/>
   </g>
   <g id="patch_4">
    <path d="M 414.72 205.489719 
L 414.72 143.566281 
" style="fill:none;stroke:#000000;stroke-linecap:square;stroke-linejoin:miter;stroke-width:0.8;"/>
   </g>
   <g id="patch_5">
    <path d="M 57.6 205.489719 
L 414.72 205.489719 
" style="fill:none;stroke:#000000;stroke-linecap:square;stroke-linejoin:miter;stroke-width:0.8;"/>
   </g>
   <g id="patch_6">
    <path d="M 57.6 143.566281 
L 414.72 143.566281 
" style="fill:none;stroke:#000000;stroke-linecap:square;stroke-linejoin:miter;stroke-width:0.8;"/>
   </g>
  </g>
 </g>
 <defs>
  <clipPath id="pfe757bff17">
   <rect height="61.923439" width="357.12" x="57.6" y="143.566281"/>
  </clipPath>
 </defs>
</svg>
